<svg width="15" height="15" viewBox="0 0 15 15" fill="none" xmlns="http://www.w3.org/2000/svg">
<path fill-rule="evenodd" clip-rule="evenodd" d="M10 3.75C10 5.13071 8.88071 6.25 7.5 6.25C6.11929 6.25 5 5.13071 5 3.75C5 2.36929 6.11929 1.25 7.5 1.25C8.88071 1.25 10 2.36929 10 3.75ZM7.5 7.5C9.57107 7.5 11.25 5.82107 11.25 3.75C11.25 1.67893 9.57107 0 7.5 0C5.42893 0 3.75 1.67893 3.75 3.75C3.75 5.82107 5.42893 7.5 7.5 7.5ZM15 13.75C15 15 13.75 15 13.75 15H1.25C1.25 15 0 15 0 13.75C0 12.5 1.25 8.75 7.5 8.75C13.75 8.75 15 12.5 15 13.75ZM13.75 13.7456C13.7482 13.4372 13.5578 12.5131 12.7099 11.6651C11.8945 10.8498 10.3614 10 7.49999 10C4.6386 10 3.10544 10.8498 2.29012 11.6651C1.44219 12.5131 1.25178 13.4372 1.25 13.7456H13.75Z" fill="#D8B192"/>
</svg>
