<svg width="14" height="16" viewBox="0 0 14 16" fill="none" xmlns="http://www.w3.org/2000/svg">
<path d="M13.9491 15.7857C13.9824 15.7218 14 15.6494 14 15.5757C14 15.502 13.9824 15.4296 13.9491 15.3657L7.92227 4.09731L7.43987 3.16161L8.75307 0.61066C8.79809 0.514672 8.80772 0.403145 8.77995 0.299472C8.75218 0.1958 8.68916 0.10804 8.60412 0.0546154C8.51907 0.00119104 8.41861 -0.0137461 8.32381 0.0129312C8.22901 0.0396085 8.14725 0.105828 8.09567 0.1977L7.00476 2.31653L6.08883 0.53748C6.0642 0.489771 6.03129 0.447893 5.99202 0.414235C5.95274 0.380578 5.90785 0.355797 5.85991 0.341316C5.81196 0.326835 5.76191 0.322936 5.7126 0.329835C5.6633 0.336735 5.6157 0.354297 5.57253 0.381527C5.52937 0.408757 5.49149 0.445117 5.46103 0.488532C5.43058 0.531947 5.40817 0.581567 5.39507 0.634557C5.38196 0.687547 5.37843 0.742872 5.38467 0.79737C5.39092 0.851868 5.40681 0.904475 5.43145 0.952185L6.56965 3.16161L6.29535 3.6948L0.0525384 15.3692C0.018666 15.4327 0.000541469 15.5048 1.19489e-05 15.5785C-0.000517571 15.6521 0.0165609 15.7246 0.0495171 15.7886C0.0824733 15.8527 0.130144 15.9059 0.187699 15.943C0.245254 15.9801 0.310657 15.9998 0.377291 16H13.6196C13.6869 16.0002 13.7529 15.9804 13.8109 15.9427C13.8689 15.905 13.9166 15.8508 13.9491 15.7857ZM4.45876 15.1549L7.00003 10.4032L9.5413 15.1549H4.45876ZM4.02366 9.57907L4.85761 8.01957L6.62168 4.72285V9.4658L6.56019 9.57907L3.57594 15.1549H1.04098L4.02366 9.57907ZM10.4225 15.1549L7.43829 9.57907L7.37838 9.4658V4.72459L9.14087 8.02131L9.97483 9.58081L12.9591 15.1567L10.4225 15.1549Z" fill="#D8B192"/>
</svg>
