<svg width="143" height="163" viewBox="0 0 143 163" fill="none" xmlns="http://www.w3.org/2000/svg">
<path d="M84.25 163C83.7859 163 83.3408 162.814 83.0127 162.484C82.6845 162.153 82.5001 161.705 82.5001 161.238V94.66C82.5043 91.3624 81.7822 88.105 80.3858 85.1224C78.9894 82.1398 76.9535 79.5063 74.4248 77.4117C74.2476 77.2643 74.1009 77.0832 73.9931 76.8788C73.8853 76.6743 73.8186 76.4505 73.7967 76.2201C73.7748 75.9896 73.7982 75.7571 73.8656 75.5358C73.9329 75.3145 74.0429 75.1087 74.1892 74.9301C74.3355 74.7516 74.5153 74.6039 74.7183 74.4953C74.9213 74.3868 75.1435 74.3196 75.3723 74.2975C75.6011 74.2755 75.832 74.299 76.0517 74.3669C76.2715 74.4347 76.4758 74.5454 76.6531 74.6928C79.5809 77.1187 81.9379 80.1685 83.5542 83.6225C85.1704 87.0765 86.0058 90.8486 86 94.667V161.245C85.9981 161.711 85.8129 162.157 85.485 162.486C85.157 162.815 84.7129 163 84.25 163Z" fill="#D8B192"/>
<path d="M31.7499 163C31.2858 163 30.8407 162.814 30.5126 162.484C30.1844 162.153 30 161.705 30 161.238V94.6599C29.9942 90.8416 30.8296 87.0694 32.4459 83.6154C34.0621 80.1614 36.4191 77.1116 39.3469 74.6857C39.7049 74.3881 40.1656 74.2459 40.6277 74.2904C40.8565 74.3125 41.0787 74.3797 41.2817 74.4882C41.4847 74.5968 41.6645 74.7445 41.8108 74.9231C41.9571 75.1016 42.0671 75.3074 42.1344 75.5287C42.2018 75.75 42.2252 75.9825 42.2033 76.2129C42.1814 76.4434 42.1147 76.6672 42.0069 76.8717C41.8991 77.0761 41.7524 77.2572 41.5752 77.4045C39.0465 79.4992 37.0106 82.1327 35.6142 85.1153C34.2178 88.0979 33.4957 91.3553 33.4999 94.6529V161.23C33.5008 161.462 33.4562 161.692 33.3687 161.907C33.2812 162.122 33.1524 162.317 32.9898 162.481C32.8272 162.646 32.634 162.776 32.4212 162.865C32.2085 162.954 31.9803 163 31.7499 163Z" fill="#D8B192"/>
<path d="M69.959 115.349H46.0411C44.1754 115.347 42.3865 114.599 41.0673 113.271C39.748 111.942 39.006 110.14 39.0041 108.261V68.4656C39.0097 63.5695 40.9434 58.8756 44.3811 55.4138C47.8188 51.952 52.4796 50.005 57.3409 50H58.6615C63.5224 50.0056 68.1827 51.9529 71.6198 55.4146C75.057 58.8764 76.9905 63.5699 76.996 68.4656V108.261C76.9942 110.14 76.2522 111.942 74.9329 113.271C73.6136 114.599 71.8248 115.347 69.959 115.349ZM57.3409 53.5249C53.4075 53.5286 49.6361 55.1038 46.8545 57.9049C44.0729 60.7059 42.5083 64.504 42.504 68.4656V108.261C42.5052 109.206 42.8782 110.111 43.5413 110.779C44.2044 111.447 45.1034 111.822 46.0411 111.824H69.959C70.8968 111.822 71.7957 111.447 72.4588 110.779C73.1219 110.111 73.495 109.206 73.4962 108.261V68.4656C73.4919 64.5044 71.9275 60.7067 69.1465 57.9057C66.3653 55.1047 62.5946 53.5292 58.6615 53.5249H57.3409Z" fill="#D8B192"/>
<path d="M67.026 124.621H48.9739C48.5098 124.621 48.0647 124.436 47.7365 124.105C47.4083 123.775 47.2239 123.326 47.2239 122.859C47.2239 122.391 47.4083 121.943 47.7365 121.613C48.0647 121.282 48.5098 121.096 48.9739 121.096H67.026C67.4902 121.096 67.9352 121.282 68.2634 121.613C68.5916 121.943 68.776 122.391 68.776 122.859C68.776 123.326 68.5916 123.775 68.2634 124.105C67.9352 124.436 67.4902 124.621 67.026 124.621Z" fill="#D8B192"/>
<path d="M136.696 54.3042C136.546 54.3059 136.397 54.2862 136.253 54.2459L106.032 45.9693C105.8 45.906 105.584 45.7922 105.4 45.6357C105.215 45.4792 105.066 45.2839 104.964 45.0633C104.861 44.8427 104.808 44.6021 104.806 44.3583C104.805 44.1145 104.855 43.8732 104.955 43.6514L124.103 0.983999C124.266 0.621516 124.551 0.329474 124.906 0.159913C125.262 -0.00964821 125.665 -0.0457087 126.045 0.0581552L141.773 4.36457C142.153 4.46918 142.483 4.70674 142.707 5.03507C142.93 5.3634 143.031 5.76125 142.992 6.15797L138.334 52.7865C138.294 53.2011 138.102 53.5855 137.797 53.8649C137.492 54.1442 137.096 54.2984 136.684 54.2975L136.696 54.3042ZM108.799 43.2523L135.247 50.4954L139.564 7.24971L126.556 3.68756L108.799 43.2523Z" fill="#D8B192"/>
<path d="M113.51 80.4655C113.36 80.4657 113.212 80.4461 113.067 80.4072C112.643 80.2907 112.281 80.008 112.061 79.6214C111.842 79.2347 111.783 78.7756 111.897 78.3448L119.81 48.6595C119.93 48.2344 120.209 47.8741 120.589 47.6564C120.968 47.4388 121.417 47.3814 121.838 47.4966C122.259 47.6118 122.618 47.8904 122.838 48.2721C123.058 48.6537 123.121 49.1078 123.013 49.536L115.1 79.2213C115.006 79.5767 114.799 79.8908 114.512 80.1156C114.225 80.3404 113.873 80.4633 113.51 80.4655Z" fill="#D8B192"/>
<path d="M113.105 101C112.956 101.002 112.807 100.982 112.663 100.942L103.226 98.3546C103.005 98.294 102.798 98.1876 102.62 98.042C102.441 97.8965 102.294 97.715 102.188 97.509C102.082 97.303 102.019 97.0769 102.004 96.8451C101.988 96.6133 102.02 96.3808 102.098 96.1622L104.752 88.6613C105.809 85.6832 107.441 82.9487 109.553 80.6179L112.291 77.5892C112.497 77.3619 112.76 77.1963 113.052 77.1104C113.344 77.0245 113.654 77.0216 113.947 77.1021C114.241 77.1827 114.507 77.3435 114.716 77.567C114.926 77.7905 115.071 78.0681 115.135 78.3694L115.998 82.4045C116.655 85.4771 116.705 88.6515 116.144 91.7437L114.724 99.6168C114.654 100.003 114.453 100.353 114.155 100.605C113.857 100.857 113.482 100.995 113.094 100.995L113.105 101ZM105.829 95.5861L111.8 97.2203L112.906 91.1429C113.387 88.4863 113.344 85.7594 112.78 83.1197L112.594 82.2566L112.023 82.8888C110.207 84.8913 108.805 87.242 107.899 89.8023L105.829 95.5861Z" fill="#D8B192"/>
<path d="M6.99153 45.736C6.56947 45.736 6.16468 45.5683 5.86624 45.2699C5.5678 44.9714 5.40014 44.5666 5.40014 44.1446V42.5914C5.40014 42.1693 5.5678 41.7645 5.86624 41.4661C6.16468 41.1677 6.56947 41 6.99153 41C7.41359 41 7.81838 41.1677 8.11682 41.4661C8.41526 41.7645 8.58292 42.1693 8.58292 42.5914V44.1446C8.58292 44.5666 8.41526 44.9714 8.11682 45.2699C7.81838 45.5683 7.41359 45.736 6.99153 45.736Z" fill="#D8B192"/>
<path d="M6.99153 55C6.56947 55 6.16468 54.8323 5.86624 54.5339C5.5678 54.2355 5.40014 53.8307 5.40014 53.4086V51.8554C5.40014 51.4334 5.5678 51.0286 5.86624 50.7301C6.16468 50.4317 6.56947 50.264 6.99153 50.264C7.41359 50.264 7.81838 50.4317 8.11682 50.7301C8.41526 51.0286 8.58292 51.4334 8.58292 51.8554V53.4086C8.58292 53.8307 8.41526 54.2355 8.11682 54.5339C7.81838 54.8323 7.41359 55 6.99153 55Z" fill="#D8B192"/>
<path d="M3.14457 49.5914H1.59139C1.16932 49.5914 0.76454 49.4238 0.466097 49.1253C0.167654 48.8269 0 48.4221 0 48C0 47.578 0.167654 47.1732 0.466097 46.8747C0.76454 46.5763 1.16932 46.4086 1.59139 46.4086H3.14457C3.56663 46.4086 3.97141 46.5763 4.26986 46.8747C4.5683 47.1732 4.73595 47.578 4.73595 48C4.73595 48.4221 4.5683 48.8269 4.26986 49.1253C3.97141 49.4238 3.56663 49.5914 3.14457 49.5914Z" fill="#D8B192"/>
<path d="M12.4086 49.5914H10.8554C10.4333 49.5914 10.0286 49.4238 9.73014 49.1253C9.4317 48.8269 9.26402 48.4221 9.26402 48C9.26402 47.578 9.4317 47.1732 9.73014 46.8747C10.0286 46.5763 10.4333 46.4086 10.8554 46.4086H12.4086C12.8307 46.4086 13.2354 46.5763 13.5339 46.8747C13.8323 47.1732 14 47.578 14 48C14 48.4221 13.8323 48.8269 13.5339 49.1253C13.2354 49.4238 12.8307 49.5914 12.4086 49.5914Z" fill="#D8B192"/>
<path d="M125.992 133.736C125.569 133.736 125.165 133.568 124.866 133.27C124.568 132.971 124.4 132.567 124.4 132.145V130.591C124.4 130.169 124.568 129.765 124.866 129.466C125.165 129.168 125.569 129 125.992 129C126.414 129 126.818 129.168 127.117 129.466C127.415 129.765 127.583 130.169 127.583 130.591V132.145C127.583 132.567 127.415 132.971 127.117 133.27C126.818 133.568 126.414 133.736 125.992 133.736Z" fill="#D8B192"/>
<path d="M125.992 143C125.569 143 125.165 142.832 124.866 142.534C124.568 142.235 124.4 141.831 124.4 141.409V139.855C124.4 139.433 124.568 139.029 124.866 138.73C125.165 138.432 125.569 138.264 125.992 138.264C126.414 138.264 126.818 138.432 127.117 138.73C127.415 139.029 127.583 139.433 127.583 139.855V141.409C127.583 141.831 127.415 142.235 127.117 142.534C126.818 142.832 126.414 143 125.992 143Z" fill="#D8B192"/>
<path d="M122.145 137.591H120.591C120.169 137.591 119.765 137.424 119.466 137.125C119.168 136.827 119 136.422 119 136C119 135.578 119.168 135.173 119.466 134.875C119.765 134.576 120.169 134.409 120.591 134.409H122.145C122.567 134.409 122.971 134.576 123.27 134.875C123.568 135.173 123.736 135.578 123.736 136C123.736 136.422 123.568 136.827 123.27 137.125C122.971 137.424 122.567 137.591 122.145 137.591Z" fill="#D8B192"/>
<path d="M131.409 137.591H129.855C129.433 137.591 129.029 137.424 128.73 137.125C128.432 136.827 128.264 136.422 128.264 136C128.264 135.578 128.432 135.173 128.73 134.875C129.029 134.576 129.433 134.409 129.855 134.409H131.409C131.831 134.409 132.235 134.576 132.534 134.875C132.832 135.173 133 135.578 133 136C133 136.422 132.832 136.827 132.534 137.125C132.235 137.424 131.831 137.591 131.409 137.591Z" fill="#D8B192"/>
</svg>
