<svg width="14" height="14" viewBox="0 0 14 14" fill="none" xmlns="http://www.w3.org/2000/svg">
<path fill-rule="evenodd" clip-rule="evenodd" d="M3.0625 0C3.30412 0 3.5 0.195875 3.5 0.4375V0.875H10.5V0.4375C10.5 0.195875 10.6959 0 10.9375 0C11.1791 0 11.375 0.195875 11.375 0.4375V0.875H12.25C13.2165 0.875 14 1.6585 14 2.625V12.25C14 13.2165 13.2165 14 12.25 14H1.75C0.783502 14 0 13.2165 0 12.25V2.625C0 1.6585 0.783502 0.875 1.75 0.875H2.625V0.4375C2.625 0.195875 2.82088 0 3.0625 0ZM1.75 1.75C1.26675 1.75 0.875 2.14175 0.875 2.625V3.5H13.125V2.625C13.125 2.14175 12.7332 1.75 12.25 1.75H1.75ZM13.125 4.375H0.875V12.25C0.875 12.7332 1.26675 13.125 1.75 13.125H12.25C12.7332 13.125 13.125 12.7332 13.125 12.25V4.375Z" fill="#D8B192"/>
</svg>
