<svg width="48" height="48" viewBox="0 0 48 48" fill="none" xmlns="http://www.w3.org/2000/svg">
<path fill-rule="evenodd" clip-rule="evenodd" d="M15 0H33C41.283 0 48 6.717 48 15V33C48 41.283 41.283 48 33 48H15C6.717 48 0 41.283 0 33V15C0 6.717 6.717 0 15 0ZM33 43.5C38.79 43.5 43.5 38.79 43.5 33V15C43.5 9.21 38.79 4.5 33 4.5H15C9.21 4.5 4.5 9.21 4.5 15V33C4.5 38.79 9.21 43.5 15 43.5H33Z" fill="#D8B192"/>
<path fill-rule="evenodd" clip-rule="evenodd" d="M12 24C12 17.373 17.373 12 24 12C30.627 12 36 17.373 36 24C36 30.627 30.627 36 24 36C17.373 36 12 30.627 12 24ZM16.5 24C16.5 28.134 19.866 31.5 24 31.5C28.134 31.5 31.5 28.134 31.5 24C31.5 19.863 28.134 16.5 24 16.5C19.866 16.5 16.5 19.863 16.5 24Z" fill="#D8B192"/>
<circle cx="36.8999" cy="11.0995" r="1.599" fill="#D8B192"/>
</svg>
