<svg width="112" height="122" viewBox="0 0 112 122" fill="none" xmlns="http://www.w3.org/2000/svg">
<path d="M59.7633 122H53.5262C47.7361 122.001 42.0984 120.136 37.4415 116.678C32.7845 113.22 29.3538 108.352 27.6536 102.789L24.4423 92.3276C23.7613 90.1041 23.8356 87.716 24.6535 85.5397C25.4715 83.3633 26.9867 81.5223 28.9603 80.3066C29.316 80.0782 36.4375 75.4357 41.2766 70.247C41.4496 70.0611 41.6589 69.9129 41.8913 69.8117C42.1238 69.7105 42.3744 69.6584 42.6278 69.6586H70.6494C70.9553 69.6588 71.2563 69.735 71.5257 69.8806C71.7951 70.0261 72.0244 70.2365 72.1933 70.4928C75.4341 75.4183 84.1291 80.2024 84.2156 80.2495L84.2971 80.2967C86.2764 81.5099 87.797 83.3513 88.6187 85.5301C89.4405 87.7088 89.5165 90.1006 88.8348 92.3276L85.6236 102.789C83.9226 108.352 80.4918 113.219 75.835 116.677C71.1781 120.135 65.5408 122 59.751 122H59.7633ZM43.433 73.3826C38.216 78.7674 31.2575 83.2585 30.9537 83.4546L30.9216 83.4745C29.6453 84.2569 28.6649 85.4444 28.1352 86.8494C27.6056 88.2544 27.5569 89.7968 27.9969 91.2327L31.1933 101.695C32.6624 106.495 35.6241 110.696 39.6436 113.68C43.6632 116.665 48.5288 118.276 53.5262 118.276H59.7633C64.7606 118.276 69.6262 116.666 73.6455 113.681C77.6647 110.697 80.6257 106.495 82.0937 101.695L85.2926 91.2327C85.7299 89.8036 85.6834 88.2691 85.1605 86.8693C84.6375 85.4695 83.6675 84.2835 82.4024 83.4968C81.6416 83.0773 73.6259 78.5862 69.6934 73.3826H43.433Z" fill="#D8B192"/>
<path d="M56.1074 91.1483C38.542 91.1483 26.4999 88.6657 25.8503 88.5167C25.3694 88.4147 24.9486 88.1248 24.6804 87.7109C24.4121 87.297 24.3185 86.7929 24.42 86.3097C24.5216 85.8264 24.81 85.4034 25.2218 85.1338C25.6337 84.8643 26.1352 84.7702 26.616 84.8722C26.8458 84.9194 47.1506 89.1126 73.0751 86.6101C73.3192 86.5829 73.5662 86.6047 73.8019 86.6744C74.0375 86.744 74.257 86.86 74.4476 87.0157C74.6383 87.1714 74.7961 87.3636 74.9121 87.5812C75.0281 87.7988 75.1 88.0374 75.1234 88.2832C75.1468 88.5289 75.1214 88.7769 75.0485 89.0126C74.9757 89.2484 74.857 89.4673 74.6993 89.6565C74.5416 89.8457 74.348 90.0015 74.1298 90.1148C73.9116 90.2282 73.6731 90.2968 73.4283 90.3166C67.2578 90.9199 61.4282 91.1483 56.1074 91.1483Z" fill="#D8B192"/>
<path d="M70.6469 73.3826C70.1864 73.3816 69.7426 73.2085 69.402 72.897C69.0614 72.5854 68.8483 72.1576 68.8042 71.6969L63.3031 13.5437C63.1977 12.4012 62.8548 11.2938 62.2965 10.2931C61.7382 9.2923 60.977 8.42057 60.0622 7.73429C57.0067 5.44463 53.3705 4.06782 49.5714 3.76208L44.4878 71.6621C44.4695 71.9066 44.4034 72.1451 44.2934 72.364C44.1833 72.5828 44.0315 72.7778 43.8465 72.9377C43.6615 73.0975 43.447 73.2192 43.2152 73.2958C42.9834 73.3723 42.7389 73.4022 42.4956 73.3838C42.2523 73.3654 42.015 73.299 41.7972 73.1884C41.5795 73.0778 41.3855 72.9252 41.2264 72.7393C41.0674 72.5534 40.9463 72.3378 40.8701 72.1048C40.7939 71.8719 40.7642 71.6261 40.7825 71.3816L45.9971 1.7437C46.0306 1.30283 46.2189 0.888287 46.5284 0.574055C46.8378 0.259822 47.2484 0.0663557 47.6866 0.0281942C47.988 0.000885183 55.1441 -0.545294 62.2607 4.7452C63.5928 5.74107 64.702 7.00702 65.5165 8.46109C66.3309 9.91516 66.8324 11.5249 66.9886 13.1862L72.4872 71.3394C72.5103 71.5826 72.4855 71.8281 72.4143 72.0617C72.343 72.2953 72.2266 72.5125 72.0718 72.7008C71.9169 72.8892 71.7267 73.0451 71.5118 73.1595C71.297 73.2739 71.0619 73.3447 70.8198 73.3677C70.7625 73.3762 70.7048 73.3811 70.6469 73.3826Z" fill="#D8B192"/>
<path d="M62.6683 111.767H49.7888C48.0259 111.765 46.2946 111.295 44.7698 110.406C43.2449 109.517 41.9803 108.239 41.1037 106.702C40.8905 106.276 40.8479 105.785 40.9846 105.328C41.1213 104.872 41.4268 104.486 41.8384 104.249C42.2499 104.012 42.7361 103.943 43.1968 104.056C43.6575 104.169 44.0576 104.455 44.3149 104.855C44.8665 105.823 45.6624 106.627 46.6222 107.187C47.582 107.746 48.6717 108.042 49.7814 108.043H62.6609C63.6958 108.044 64.7149 107.788 65.6277 107.297C66.5404 106.807 67.3184 106.098 67.8927 105.232C68.1659 104.822 68.5901 104.537 69.0722 104.441C69.5542 104.345 70.0544 104.445 70.4629 104.72C70.8714 104.994 71.1546 105.421 71.2503 105.905C71.3459 106.389 71.2462 106.892 70.973 107.303C70.0611 108.676 68.826 109.802 67.3773 110.581C65.9286 111.36 64.3111 111.767 62.6683 111.767Z" fill="#D8B192"/>
<path d="M18.3311 27.7244C17.8398 27.7244 17.3686 27.5283 17.0211 27.1791C16.6737 26.8299 16.4785 26.3563 16.4785 25.8625V24.0452C16.4785 23.5514 16.6737 23.0778 17.0211 22.7286C17.3686 22.3794 17.8398 22.1832 18.3311 22.1832C18.8225 22.1832 19.2937 22.3794 19.6412 22.7286C19.9886 23.0778 20.1838 23.5514 20.1838 24.0452V25.8625C20.1838 26.3563 19.9886 26.8299 19.6412 27.1791C19.2937 27.5283 18.8225 27.7244 18.3311 27.7244Z" fill="#D8B192"/>
<path d="M18.3311 38.5637C17.8398 38.5637 17.3686 38.3675 17.0211 38.0183C16.6737 37.6691 16.4785 37.1955 16.4785 36.7017V34.8844C16.4785 34.3906 16.6737 33.917 17.0211 33.5678C17.3686 33.2186 17.8398 33.0224 18.3311 33.0224C18.8225 33.0224 19.2937 33.2186 19.6412 33.5678C19.9886 33.917 20.1838 34.3906 20.1838 34.8844V36.7017C20.1838 37.1955 19.9886 37.6691 19.6412 38.0183C19.2937 38.3675 18.8225 38.5637 18.3311 38.5637Z" fill="#D8B192"/>
<path d="M13.8527 32.2355H12.0445C11.5532 32.2355 11.0819 32.0393 10.7345 31.6901C10.3871 31.3409 10.1919 30.8673 10.1919 30.3735C10.1919 29.8797 10.3871 29.406 10.7345 29.0569C11.0819 28.7077 11.5532 28.5115 12.0445 28.5115H13.8527C14.344 28.5115 14.8152 28.7077 15.1627 29.0569C15.5101 29.406 15.7053 29.8797 15.7053 30.3735C15.7053 30.8673 15.5101 31.3409 15.1627 31.6901C14.8152 32.0393 14.344 32.2355 13.8527 32.2355Z" fill="#D8B192"/>
<path d="M24.6375 32.2355H22.8293C22.338 32.2355 21.8668 32.0393 21.5193 31.6901C21.1719 31.3409 20.9767 30.8673 20.9767 30.3735C20.9767 29.8797 21.1719 29.406 21.5193 29.0569C21.8668 28.7077 22.338 28.5115 22.8293 28.5115H24.6375C25.1289 28.5115 25.6001 28.7077 25.9475 29.0569C26.2949 29.406 26.4901 29.8797 26.4901 30.3735C26.4901 30.8673 26.2949 31.3409 25.9475 31.6901C25.6001 32.0393 25.1289 32.2355 24.6375 32.2355Z" fill="#D8B192"/>
<path d="M98.8588 63.5241C98.3674 63.5241 97.8962 63.3279 97.5488 62.9787C97.2014 62.6295 97.0061 62.1559 97.0061 61.6621V59.8448C97.0061 59.351 97.2014 58.8774 97.5488 58.5282C97.8962 58.179 98.3674 57.9828 98.8588 57.9828C99.3501 57.9828 99.8213 58.179 100.169 58.5282C100.516 58.8774 100.711 59.351 100.711 59.8448V61.6621C100.711 62.1559 100.516 62.6295 100.169 62.9787C99.8213 63.3279 99.3501 63.5241 98.8588 63.5241Z" fill="#D8B192"/>
<path d="M98.8588 74.3633C98.3674 74.3633 97.8962 74.1671 97.5488 73.8179C97.2014 73.4688 97.0061 72.9952 97.0061 72.5013V70.684C97.0061 70.1902 97.2014 69.7166 97.5488 69.3674C97.8962 69.0182 98.3674 68.8221 98.8588 68.8221C99.3501 68.8221 99.8213 69.0182 100.169 69.3674C100.516 69.7166 100.711 70.1902 100.711 70.684V72.5013C100.711 72.9952 100.516 73.4688 100.169 73.8179C99.8213 74.1671 99.3501 74.3633 98.8588 74.3633Z" fill="#D8B192"/>
<path d="M94.3631 68.035H92.5549C92.0635 68.035 91.5923 67.8388 91.2449 67.4896C90.8975 67.1404 90.7023 66.6668 90.7023 66.173C90.7023 65.6792 90.8975 65.2056 91.2449 64.8564C91.5923 64.5072 92.0635 64.311 92.5549 64.311H94.3631C94.8544 64.311 95.3256 64.5072 95.6731 64.8564C96.0205 65.2056 96.2157 65.6792 96.2157 66.173C96.2157 66.6668 96.0205 67.1404 95.6731 67.4896C95.3256 67.8388 94.8544 68.035 94.3631 68.035Z" fill="#D8B192"/>
<path d="M105.148 68.035H103.34C102.848 68.035 102.377 67.8388 102.03 67.4896C101.682 67.1404 101.487 66.6668 101.487 66.173C101.487 65.6792 101.682 65.2056 102.03 64.8564C102.377 64.5072 102.848 64.311 103.34 64.311H105.148C105.639 64.311 106.11 64.5072 106.458 64.8564C106.805 65.2056 107 65.6792 107 66.173C107 66.6668 106.805 67.1404 106.458 67.4896C106.11 67.8388 105.639 68.035 105.148 68.035Z" fill="#D8B192"/>
<path d="M8.14904 87.6851C7.65769 87.6851 7.18646 87.4889 6.83902 87.1397C6.49158 86.7906 6.29641 86.3169 6.29641 85.8231V84.0083C6.29641 83.5145 6.49158 83.0409 6.83902 82.6917C7.18646 82.3425 7.65769 82.1463 8.14904 82.1463C8.64039 82.1463 9.11159 82.3425 9.45903 82.6917C9.80646 83.0409 10.0017 83.5145 10.0017 84.0083V85.8231C10.0017 86.3169 9.80646 86.7906 9.45903 87.1397C9.11159 87.4889 8.64039 87.6851 8.14904 87.6851Z" fill="#D8B192"/>
<path d="M8.14904 98.5268C7.65769 98.5268 7.18646 98.3306 6.83902 97.9814C6.49158 97.6322 6.29641 97.1587 6.29641 96.6648V94.8475C6.29641 94.3537 6.49158 93.8801 6.83902 93.5309C7.18646 93.1817 7.65769 92.9856 8.14904 92.9856C8.64039 92.9856 9.11159 93.1817 9.45903 93.5309C9.80646 93.8801 10.0017 94.3537 10.0017 94.8475V96.6648C10.0017 97.1587 9.80646 97.6322 9.45903 97.9814C9.11159 98.3306 8.64039 98.5268 8.14904 98.5268Z" fill="#D8B192"/>
<path d="M3.66078 92.1985H1.85263C1.36128 92.1985 0.890047 92.0023 0.542612 91.6531C0.195176 91.3039 0 90.8303 0 90.3365C0 89.8427 0.195176 89.3691 0.542612 89.0199C0.890047 88.6707 1.36128 88.4745 1.85263 88.4745H3.66078C4.15213 88.4745 4.62337 88.6707 4.9708 89.0199C5.31824 89.3691 5.51341 89.8427 5.51341 90.3365C5.51341 90.8303 5.31824 91.3039 4.9708 91.6531C4.62337 92.0023 4.15213 92.1985 3.66078 92.1985Z" fill="#D8B192"/>
<path d="M12.6497 92.1985C12.1584 92.1985 11.6872 92.0023 11.3397 91.6531C10.9923 91.3039 10.7971 90.8303 10.7971 90.3365C10.7971 89.8427 10.9923 89.3691 11.3397 89.0199C11.6872 88.6707 12.1584 88.4745 12.6497 88.4745H14.4579C14.9492 88.4745 15.4205 88.6707 15.7679 89.0199C16.1154 89.3691 16.3105 89.8427 16.3105 90.3365C16.3105 90.8303 16.1154 91.3039 15.7679 91.6531C15.4205 92.0023 14.9492 92.1985 14.4579 92.1985H12.6497Z" fill="#D8B192"/>
<path d="M17.3258 68.3056C16.2851 68.3056 15.2679 67.9955 14.4026 67.4144C13.5374 66.8334 12.863 66.0075 12.4648 65.0413C12.0666 64.075 11.9624 63.0118 12.1654 61.986C12.3684 60.9602 12.8695 60.018 13.6053 59.2784C14.3412 58.5389 15.2787 58.0353 16.2993 57.8312C17.3199 57.6272 18.3778 57.7319 19.3392 58.1321C20.3006 58.5324 21.1224 59.2101 21.7005 60.0798C22.2786 60.9494 22.5872 61.9718 22.5872 63.0176C22.5859 64.4197 22.0311 65.7639 21.0447 66.7554C20.0583 67.7468 18.7208 68.3043 17.3258 68.3056ZM17.3258 61.4536C17.018 61.4536 16.7171 61.5453 16.4612 61.7172C16.2053 61.889 16.0058 62.1333 15.888 62.4191C15.7702 62.7049 15.7394 63.0194 15.7995 63.3228C15.8595 63.6262 16.0077 63.9048 16.2253 64.1236C16.443 64.3423 16.7203 64.4913 17.0222 64.5516C17.324 64.612 17.6369 64.581 17.9213 64.4626C18.2057 64.3442 18.4487 64.1438 18.6197 63.8866C18.7907 63.6294 18.882 63.327 18.882 63.0176C18.8813 62.603 18.7171 62.2056 18.4254 61.9124C18.1337 61.6192 17.7383 61.4542 17.3258 61.4536Z" fill="#D8B192"/>
<path d="M106.741 107.64C105.7 107.641 104.683 107.331 103.817 106.75C102.952 106.17 102.277 105.344 101.878 104.378C101.48 103.412 101.375 102.348 101.578 101.322C101.781 100.296 102.282 99.3539 103.017 98.6142C103.753 97.8744 104.69 97.3705 105.711 97.1662C106.732 96.962 107.79 97.0666 108.751 97.4668C109.713 97.8669 110.535 98.5447 111.113 99.4144C111.691 100.284 112 101.306 112 102.352C111.999 103.754 111.444 105.098 110.458 106.089C109.472 107.081 108.136 107.639 106.741 107.64ZM106.741 100.788C106.433 100.788 106.132 100.879 105.876 101.051C105.62 101.222 105.42 101.466 105.302 101.752C105.183 102.038 105.152 102.353 105.212 102.656C105.272 102.96 105.42 103.239 105.637 103.458C105.855 103.677 106.132 103.826 106.434 103.886C106.736 103.947 107.049 103.916 107.334 103.798C107.618 103.679 107.861 103.479 108.032 103.222C108.203 102.964 108.295 102.662 108.295 102.352C108.295 101.938 108.131 101.54 107.84 101.247C107.549 100.953 107.154 100.787 106.741 100.786V100.788Z" fill="#D8B192"/>
<path d="M58.4417 15.9668C58.1224 15.9647 57.8091 15.8791 57.5327 15.7185C47.4692 10.0084 46.0835 2.50593 46.0291 2.19063C45.9575 1.71018 46.0755 1.22062 46.3581 0.826429C46.6406 0.432237 47.0652 0.164632 47.5413 0.0807224C48.0174 -0.0031871 48.5073 0.103247 48.9064 0.377308C49.3055 0.651369 49.5823 1.07135 49.6776 1.54763C49.7319 1.82817 50.9472 7.70953 59.3532 12.4712C59.7059 12.6752 59.982 12.9903 60.1387 13.3678C60.2955 13.7452 60.3242 14.164 60.2205 14.5595C60.1168 14.955 59.8864 15.3052 59.5649 15.556C59.2434 15.8067 58.8487 15.9441 58.4417 15.9469V15.9668Z" fill="#D8B192"/>
</svg>
