<svg width="125" height="113" viewBox="0 0 125 113" fill="none" xmlns="http://www.w3.org/2000/svg">
<path d="M21.1864 87.7857C20.8003 87.7847 20.4232 87.6698 20.1025 87.4556C19.7818 87.2414 19.5319 86.9374 19.3843 86.582C19.2367 86.2266 19.198 85.8356 19.273 85.4583C19.3481 85.081 19.5334 84.7342 19.8059 84.4617L104.017 0.570193C104.383 0.205105 104.881 0 105.399 0C105.917 0 106.414 0.205105 106.781 0.570193C107.147 0.935282 107.353 1.43045 107.353 1.94676C107.353 2.46308 107.147 2.95824 106.781 3.32333L22.5722 87.2149C22.3902 87.396 22.1741 87.5397 21.9363 87.6376C21.6986 87.7356 21.4437 87.7859 21.1864 87.7857Z" fill="#D8B192"/>
<path d="M54.8709 106.871C48.2651 106.873 41.7796 105.109 36.0908 101.764C35.8625 101.638 35.6618 101.468 35.5006 101.264C35.3394 101.059 35.221 100.825 35.1522 100.574C35.0835 100.323 35.0659 100.061 35.1005 99.8035C35.1351 99.5459 35.2211 99.2977 35.3536 99.0737C35.486 98.8497 35.6621 98.6544 35.8716 98.4994C36.081 98.3443 36.3195 98.2326 36.573 98.1709C36.8265 98.1092 37.0899 98.0987 37.3475 98.14C37.6051 98.1814 37.8518 98.2737 38.073 98.4116C44.4068 102.125 51.7993 103.636 59.0892 102.709C66.3791 101.782 73.1532 98.4687 78.3474 93.2894L121.641 50.1604C121.821 49.9744 122.036 49.826 122.275 49.7239C122.513 49.6218 122.769 49.568 123.029 49.5657C123.288 49.5633 123.545 49.6124 123.785 49.7102C124.025 49.8079 124.244 49.9523 124.427 50.1349C124.611 50.3176 124.756 50.5348 124.854 50.7739C124.953 51.0131 125.002 51.2693 125 51.5277C124.998 51.7861 124.944 52.0415 124.842 52.279C124.74 52.5165 124.591 52.7313 124.404 52.9109L81.098 96.0399C77.6552 99.4736 73.5669 102.198 69.0666 104.056C64.5664 105.914 59.7425 106.871 54.8709 106.871Z" fill="#D8B192"/>
<path d="M16.6282 113C13.6452 113.008 10.6903 112.427 7.93432 111.29C5.17838 110.153 2.67622 108.482 0.572647 106.375C0.39111 106.195 0.247122 105.98 0.148869 105.744C0.0506158 105.508 0 105.254 0 104.999C0 104.743 0.0506158 104.49 0.148869 104.254C0.247122 104.017 0.39111 103.803 0.572647 103.622L56.8349 47.5734C57.0163 47.3925 57.2317 47.249 57.4688 47.1512C57.7059 47.0533 57.96 47.0029 58.2167 47.0029C58.4733 47.0029 58.7275 47.0533 58.9646 47.1512C59.2017 47.249 59.417 47.3925 59.5985 47.5734C63.8496 51.8186 66.2371 57.5703 66.2371 63.5667C66.2371 69.5632 63.8496 75.3148 59.5985 79.5601L32.6812 106.375C30.5779 108.482 28.0761 110.152 25.3207 111.289C22.5652 112.426 19.6107 113.008 16.6282 113ZM4.78709 104.927C8.39651 107.844 12.9624 109.325 17.6037 109.086C22.245 108.846 26.6327 106.903 29.9202 103.63L56.8401 76.8121C60.1197 73.5346 62.067 69.1648 62.3074 64.5432C62.5478 59.9216 61.0644 55.3747 58.1425 51.777L4.78709 104.927Z" fill="#D8B192"/>
<path d="M35.3355 92.5239C34.9491 92.5241 34.5714 92.4101 34.2501 92.1964C33.9287 91.9828 33.6782 91.679 33.5301 91.3235C33.3821 90.968 33.3432 90.5767 33.4183 90.1992C33.4935 89.8217 33.6793 89.4748 33.9523 89.2025L44.8766 78.3223C45.2452 77.9679 45.7388 77.772 46.251 77.7767C46.7632 77.7813 47.2531 77.9863 47.6151 78.3473C47.9771 78.7083 48.1824 79.1965 48.1866 79.7067C48.1908 80.217 47.9936 80.7085 47.6376 81.0754L36.716 91.9556C36.5348 92.1363 36.3195 92.2795 36.0826 92.377C35.8457 92.4745 35.5918 92.5244 35.3355 92.5239Z" fill="#D8B192"/>
<path d="M29.816 98.0276C29.4294 98.0285 29.0511 97.9149 28.7294 97.7013C28.4076 97.4876 28.1568 97.1835 28.0089 96.8276C27.8609 96.4717 27.8225 96.08 27.8985 95.7023C27.9744 95.3246 28.1614 94.9779 28.4355 94.7062L29.6519 93.4918C29.8334 93.311 30.0488 93.1677 30.2859 93.0698C30.523 92.972 30.7771 92.9216 31.0338 92.9216C31.2904 92.9216 31.5444 92.972 31.7815 93.0698C32.0186 93.1677 32.2341 93.311 32.4156 93.4918C32.597 93.6726 32.7409 93.8872 32.8391 94.1234C32.9373 94.3596 32.9879 94.6127 32.9879 94.8684C32.9879 95.124 32.9373 95.3772 32.8391 95.6134C32.7409 95.8496 32.597 96.0642 32.4156 96.2449L31.1966 97.4594C31.0154 97.64 30.8001 97.7832 30.5632 97.8807C30.3263 97.9782 30.0724 98.0282 29.816 98.0276Z" fill="#D8B192"/>
<path d="M15.24 64.6501C14.7219 64.6501 14.2249 64.4451 13.8586 64.0801C13.4922 63.7151 13.2864 63.2201 13.2864 62.704V60.8045C13.2864 60.2884 13.4922 59.7934 13.8586 59.4284C14.2249 59.0634 14.7219 58.8584 15.24 58.8584C15.7581 58.8584 16.255 59.0634 16.6213 59.4284C16.9877 59.7934 17.1935 60.2884 17.1935 60.8045V62.704C17.1935 63.2201 16.9877 63.7151 16.6213 64.0801C16.255 64.4451 15.7581 64.6501 15.24 64.6501Z" fill="#D8B192"/>
<path d="M15.24 75.9791C14.7219 75.9791 14.2249 75.7741 13.8586 75.4091C13.4922 75.0441 13.2864 74.5491 13.2864 74.033V72.1336C13.2864 71.6174 13.4922 71.1224 13.8586 70.7574C14.2249 70.3925 14.7219 70.1874 15.24 70.1874C15.7581 70.1874 16.255 70.3925 16.6213 70.7574C16.9877 71.1224 17.1935 71.6174 17.1935 72.1336V74.033C17.1935 74.5491 16.9877 75.0441 16.6213 75.4091C16.255 75.7741 15.7581 75.9791 15.24 75.9791Z" fill="#D8B192"/>
<path d="M10.5071 69.3649H8.60045C8.08234 69.3649 7.5854 69.1598 7.21904 68.7949C6.85268 68.4299 6.6469 67.9349 6.6469 67.4187C6.6469 66.9026 6.85268 66.4076 7.21904 66.0426C7.5854 65.6776 8.08234 65.4726 8.60045 65.4726H10.5071C11.0252 65.4726 11.5221 65.6776 11.8885 66.0426C12.2548 66.4076 12.4606 66.9026 12.4606 67.4187C12.4606 67.9349 12.2548 68.4299 11.8885 68.7949C11.5221 69.1598 11.0252 69.3649 10.5071 69.3649Z" fill="#D8B192"/>
<path d="M21.8793 69.3649H19.9674C19.4493 69.3649 18.9524 69.1598 18.5861 68.7949C18.2197 68.4299 18.0139 67.9349 18.0139 67.4187C18.0139 66.9026 18.2197 66.4076 18.5861 66.0426C18.9524 65.6776 19.4493 65.4726 19.9674 65.4726H21.8741C22.3922 65.4726 22.8891 65.6776 23.2554 66.0426C23.6218 66.4076 23.8276 66.9026 23.8276 67.4187C23.8276 67.9349 23.6218 68.4299 23.2554 68.7949C22.8891 69.1598 22.3922 69.3649 21.8741 69.3649H21.8793Z" fill="#D8B192"/>
<path d="M37.0701 26.9157C36.552 26.9157 36.0551 26.7106 35.6888 26.3457C35.3224 25.9807 35.1166 25.4857 35.1166 24.9695V23.0701C35.1166 22.5539 35.3224 22.0589 35.6888 21.694C36.0551 21.329 36.552 21.124 37.0701 21.124C37.5882 21.124 38.0852 21.329 38.4515 21.694C38.8179 22.0589 39.0237 22.5539 39.0237 23.0701V24.9695C39.0237 25.4857 38.8179 25.9807 38.4515 26.3457C38.0852 26.7106 37.5882 26.9157 37.0701 26.9157Z" fill="#D8B192"/>
<path d="M37.0701 38.2448C36.552 38.2448 36.0551 38.0398 35.6888 37.6748C35.3224 37.3098 35.1166 36.8148 35.1166 36.2987V34.3993C35.1166 33.8831 35.3224 33.3881 35.6888 33.0231C36.0551 32.6582 36.552 32.4531 37.0701 32.4531C37.5882 32.4531 38.0852 32.6582 38.4515 33.0231C38.8179 33.3881 39.0237 33.8831 39.0237 34.3993V36.2987C39.0237 36.8148 38.8179 37.3098 38.4515 37.6748C38.0852 38.0398 37.5882 38.2448 37.0701 38.2448Z" fill="#D8B192"/>
<path d="M32.3347 31.6306H30.4306C29.9125 31.6306 29.4156 31.4255 29.0493 31.0606C28.6829 30.6956 28.4771 30.2006 28.4771 29.6844C28.4771 29.1683 28.6829 28.6733 29.0493 28.3083C29.4156 27.9433 29.9125 27.7383 30.4306 27.7383H32.3347C32.8528 27.7383 33.3497 27.9433 33.716 28.3083C34.0824 28.6733 34.2882 29.1683 34.2882 29.6844C34.2882 30.2006 34.0824 30.6956 33.716 31.0606C33.3497 31.4255 32.8528 31.6306 32.3347 31.6306Z" fill="#D8B192"/>
<path d="M43.7095 31.6306H41.8029C41.2848 31.6306 40.7879 31.4255 40.4215 31.0606C40.0551 30.6956 39.8494 30.2006 39.8494 29.6844C39.8494 29.1683 40.0551 28.6733 40.4215 28.3083C40.7879 27.9433 41.2848 27.7383 41.8029 27.7383H43.7095C44.2276 27.7383 44.7246 27.9433 45.0909 28.3083C45.4573 28.6733 45.6631 29.1683 45.6631 29.6844C45.6631 30.2006 45.4573 30.6956 45.0909 31.0606C44.7246 31.4255 44.2276 31.6306 43.7095 31.6306Z" fill="#D8B192"/>
</svg>
