<svg width="265" height="31" viewBox="0 0 265 31" fill="none" xmlns="http://www.w3.org/2000/svg">
<path d="M12.988 29.9896C12.8939 29.9896 12.8468 29.9896 12.7527 29.9896C12.4704 30.0356 12.188 30.0815 11.9057 30.0815C11.6704 30.0815 11.5292 30.0815 11.5292 30.0815C10.2587 30.0815 5.22344 29.9896 3.4823 29.9437V15.2474H10.8233V14.6963H3.4823V11.7111C3.4823 9.09333 3.43524 7.16444 3.43524 5.64889V0.964443H10.8233C10.9175 0.964443 11.0586 0.964443 11.1998 1.01037C11.8586 1.01037 12.4704 1.0563 13.0821 1.19407C13.0821 1.19407 13.0821 1.19407 13.1292 1.19407C15.0586 1.51556 17.7409 2.29629 20.0938 4.22519V0.459259H0V30.5867H20.9408V25.397C18.7762 28.7037 15.0115 29.6681 12.988 29.9896Z" fill="white"/>
<path d="M51.4539 0.459259L48.301 8.35852L48.1599 8.72593L47.9716 9.23111L45.5717 15.3393L41.2894 26.1778C41.2423 26.3156 41.1953 26.4074 41.1012 26.4074C41.007 26.4074 40.9129 26.3156 40.8659 26.1778L37.9953 19.0593L37.6189 18.0948L34.3248 9.87407C33.4307 7.66963 32.7719 6.0163 32.3013 4.73037L32.2542 4.59259L30.6072 0.459259H26.8426L29.1014 6.06222L29.1484 6.15407C29.5719 7.11852 30.0425 8.22074 30.5602 9.59852L35.8777 22.6415L36.1601 23.4222L39.0777 30.5407C39.1247 30.6326 39.1718 30.6785 39.4541 30.6785H39.8776C40.1129 30.6785 40.16 30.6326 40.2071 30.5407L44.5835 19.3807L48.3952 9.64444C48.5363 9.18518 48.7716 8.72593 48.9599 8.26667L44.5835 19.3807L49.0069 8.22074L52.0657 0.459259C51.8304 0.459259 51.5951 0.459259 51.4539 0.459259Z" fill="white"/>
<path d="M72.8584 29.9896C72.7642 29.9896 72.7172 29.9896 72.6231 29.9896C72.3407 30.0356 72.0584 30.0815 71.776 30.0815C71.5407 30.0815 71.3996 30.0815 71.3996 30.0815C70.129 30.0815 65.0938 29.9896 63.3526 29.9437V15.2474H70.6937V14.6963H63.3526V11.7111C63.3526 9.09333 63.3056 7.16444 63.3056 5.64889V0.964443H70.6937C70.7878 0.964443 70.929 0.964443 71.0701 1.01037C71.729 1.01037 72.3407 1.0563 72.9525 1.19407C72.9525 1.19407 72.9525 1.19407 72.9995 1.19407C74.9289 1.51556 77.6112 2.29629 79.9641 4.22519V0.459259H59.8703V30.5867H80.8112V25.397C78.6465 28.7037 74.8818 29.6681 72.8584 29.9896Z" fill="white"/>
<path d="M106.101 22.7793C103.748 18.1407 102.289 16.3956 99.748 15.8444C105.066 15.1096 108.595 12.1244 108.595 7.99111C108.595 3.12296 104.077 0.459259 96.8304 0.459259H89.254V30.5867H92.5951V16.0281C93.4893 16.0281 94.3363 16.0281 95.1833 16.0281C98.6656 16.2578 100.03 17.4059 103.042 24.203C104.454 27.4637 105.677 29.4844 106.571 30.5407H110.854C109.63 29.6681 108.407 27.5556 106.101 22.7793ZM104.783 7.94518C104.783 12.6296 101.677 15.6148 96.1245 15.6148H92.5951V0.826667H96.1716C101.866 0.826667 104.783 3.21481 104.783 7.94518Z" fill="white"/>
<path d="M139.871 29.0252C139.871 29.0252 139.871 29.0252 139.824 29.0711C138.93 29.5763 137.941 29.9437 136.812 30.2193C136.765 30.2193 136.718 30.2193 136.671 30.2652C136.53 30.2652 136.341 30.3111 136.2 30.357C135.824 30.403 135.447 30.4489 135.024 30.4948C134.553 30.5407 134.083 30.5407 133.565 30.5407C125.471 30.5407 120.812 24.4326 120.812 15.523C120.812 6.56741 125.942 0.459259 133.942 0.459259C134.271 0.459259 134.647 0.459259 134.977 0.505184C135.024 0.505184 135.024 0.505184 135.071 0.505184C137.753 0.734814 139.965 1.88296 141.612 3.12296C143.824 4.82222 145.047 6.70518 145.188 6.93481L144.906 1.92889C142.506 0.872592 137.565 0 133.847 0C124.671 0 116.812 6.42963 116.812 15.523C116.812 24.4326 124.106 31 133.659 31C138.459 31 142.6 30.1274 145 29.0711L145.283 24.0193C145.283 24.0193 143.4 27.0963 139.871 29.0252Z" fill="white"/>
<path d="M175.167 19.9778C175.167 25.3511 171.45 29.6222 166.697 29.6222C160.862 29.6222 157.144 25.4889 157.144 18.4622L157.191 15.0637V0.413333H153.85V19.6104C153.85 26.7289 157.991 31 164.485 31C171.638 31 175.779 25.7644 175.779 19.9778V0.413333H175.167V19.9778Z" fill="white"/>
<path d="M202.616 22.7793C200.263 18.1407 198.804 16.3956 196.263 15.8444C201.58 15.1096 205.11 12.1244 205.11 7.99111C205.11 3.12296 200.592 0.459259 193.345 0.459259H185.769V30.5867H189.11V16.0281C190.004 16.0281 190.851 16.0281 191.698 16.0281C195.181 16.2578 196.545 17.4059 199.557 24.203C200.969 27.4637 202.192 29.4844 203.086 30.5407H207.369C206.145 29.6681 204.922 27.5556 202.616 22.7793ZM201.298 7.94518C201.298 12.6296 198.192 15.6148 192.639 15.6148H189.11V0.826667H192.686C198.381 0.826667 201.298 3.21481 201.298 7.94518Z" fill="white"/>
<path d="M228.416 29.9896C228.322 29.9896 228.275 29.9896 228.181 29.9896C227.899 30.0356 227.616 30.0815 227.334 30.0815C227.099 30.0815 226.958 30.0815 226.958 30.0815C225.687 30.0815 220.652 29.9896 218.911 29.9437V15.2474H226.252V14.6963H218.911V11.7111C218.911 9.09333 218.864 7.16444 218.864 5.64889V0.964443H226.252C226.346 0.964443 226.487 0.964443 226.628 1.01037C227.287 1.01037 227.899 1.0563 228.511 1.19407C228.511 1.19407 228.511 1.19407 228.558 1.19407C230.487 1.51556 233.169 2.29629 235.522 4.22519V0.459259H215.428V30.5867H236.369V25.397C234.205 28.7037 230.44 29.6681 228.416 29.9896Z" fill="white"/>
<path d="M255.683 14.0993C251.071 12.2163 246.506 10.3793 246.506 6.24592C246.506 2.93926 248.671 0.459259 254.13 0.459259C254.13 0.459259 254.224 0.459259 254.365 0.459259C254.412 0.459259 254.506 0.459259 254.6 0.459259C255.777 0.551109 258.977 0.918518 261.518 3.16889C262.553 4.08741 263.494 5.37333 264.106 7.11852V1.24C264.059 1.19407 263.965 1.19407 263.824 1.14815C261.282 0.597035 258.553 0 254.13 0C248.483 0 243.73 3.12296 243.73 8.26667C243.73 12.9052 248.577 14.9259 253.33 16.8548C257.847 18.6919 262.318 20.437 262.318 24.7081C262.318 28.1526 260.2 30.5407 255.259 30.5407C253.988 30.5407 252.859 30.4489 251.871 30.1733C251.4 30.0356 250.93 29.8978 250.412 29.6681C250.318 29.6222 250.224 29.5763 250.13 29.5304C250.036 29.4844 249.941 29.4385 249.847 29.3926C249.706 29.3007 249.565 29.2548 249.424 29.163C249.047 28.9333 248.624 28.6578 248.247 28.3363C246.789 27.1881 245.377 25.443 244.436 22.7793C244.436 25.3511 244.483 28.1067 244.483 29.2548C244.483 29.5304 244.483 29.6222 244.906 29.7141C248.059 30.5407 250.459 31 255.259 31C260.624 31 265 27.6474 265 22.6415C265 17.957 260.294 16.0281 255.683 14.0993Z" fill="white"/>
</svg>
