<svg width="41" height="41" viewBox="0 0 41 41" fill="none" xmlns="http://www.w3.org/2000/svg">
<path d="M15.4005 4.68982C14.7479 4.68982 14.2188 5.21895 14.2188 5.87161V5.94196C14.2188 6.59462 14.7479 7.12375 15.4005 7.12375C16.0532 7.12375 16.5823 6.59462 16.5823 5.94196V5.87161C16.5823 5.21895 16.0532 4.68982 15.4005 4.68982Z" fill="white"/>
<path d="M10.674 4.68982C10.0213 4.68982 9.49219 5.21895 9.49219 5.87161V5.94196C9.49219 6.59462 10.0213 7.12375 10.674 7.12375C11.3266 7.12375 11.8558 6.59462 11.8558 5.94196V5.87161C11.8558 5.21895 11.3266 4.68982 10.674 4.68982Z" fill="white"/>
<path d="M5.94741 4.68982C5.29475 4.68982 4.76562 5.21895 4.76562 5.87161V5.94196C4.76562 6.59462 5.29475 7.12375 5.94741 7.12375C6.60007 7.12375 7.1292 6.59462 7.1292 5.94196V5.87161C7.1292 5.21895 6.60007 4.68982 5.94741 4.68982Z" fill="white"/>
<path d="M39.854 15.1826C39.5495 14.96 39.1569 14.8962 38.7978 15.0107L31.8414 17.2271V1.18179C31.8414 0.529125 31.3123 0 30.6597 0H1.18179C0.529125 0 0 0.529125 0 1.18179V28.3929C0 29.0456 0.529125 29.5747 1.18179 29.5747H15.7483C16.7947 30.7293 18.2664 31.4903 19.9133 31.6118V39.1154C19.9133 39.7681 20.4424 40.2972 21.0951 40.2972H26.0298C26.6825 40.2972 27.2116 39.7681 27.2116 39.1154V32.0657L38.7979 35.7571C39.5283 36.013 40.3604 35.4067 40.3385 34.6311V16.1367C40.3383 15.7596 40.1584 15.4051 39.854 15.1826ZM2.36357 2.36357H29.4778V9.41671H2.36357V2.36357ZM19.9132 29.2387C17.9898 29.0088 16.4933 27.3683 16.4933 25.3839C16.4933 23.3996 17.9897 21.7592 19.9132 21.5292V29.2387ZM24.8479 37.9337H22.2768V31.6308H24.8479V37.9337ZM24.8486 29.2673H22.2768V21.5006H24.8486V29.2673ZM25.8466 19.1371H20.3767C16.9322 19.1371 14.1298 21.9394 14.1298 25.3839C14.1298 26.0195 14.2258 26.6329 14.403 27.2111H2.36357V11.7804H29.4778V17.9801L25.8466 19.1371ZM37.9748 33.0143L27.2121 29.5853V21.1827L37.9748 17.7535V33.0143Z" fill="white"/>
</svg>
