<svg width="41" height="41" viewBox="0 0 41 41" fill="none" xmlns="http://www.w3.org/2000/svg">
<path d="M1.46375 38.8717C3.47901 40.9472 7.04942 40.7926 8.87812 38.5545L14.1701 32.2696C16.8146 33.8391 19.8412 34.6772 22.9968 34.6772C27.6281 34.6772 31.9821 32.8736 35.257 29.5989C38.5318 26.3241 40.3354 21.97 40.3354 17.3386C40.3354 12.7073 38.5318 8.35326 35.257 5.07838C31.9822 1.80349 27.6281 0 22.9968 0C18.3656 0 14.0114 1.80356 10.7366 5.07838C7.46179 8.35319 5.65822 12.7073 5.65822 17.3386C5.65822 20.4942 6.49627 23.5208 8.06576 26.1653L1.78094 31.4573C-0.457918 33.2866 -0.610841 36.858 1.46375 38.8717ZM8.02188 17.3386C8.02188 9.08132 14.7396 2.36357 22.9968 2.36357C31.2542 2.36357 37.9719 9.08132 37.9719 17.3386C37.9719 25.5958 31.2542 32.3136 22.9968 32.3136C14.7396 32.3136 8.02188 25.5958 8.02188 17.3386ZM9.41552 28.1187C9.82505 28.6327 10.2651 29.1273 10.7367 29.5989C11.2083 30.0705 11.7029 30.5104 12.2167 30.92L9.1779 34.5289L5.80658 31.1576L9.41552 28.1187ZM2.3545 35.1958C2.38688 34.4389 2.72385 33.7533 3.30339 33.2653L3.9919 32.6855L7.64993 36.3435L7.07014 37.032C6.58214 37.6116 5.89655 37.9485 5.13958 37.9809C3.61948 38.0825 2.25318 36.7161 2.3545 35.1958Z" fill="white"/>
<path d="M20.2101 22.253H23.367C23.9544 22.253 24.4306 21.7768 24.4306 21.1894C24.4306 20.602 23.9544 20.1258 23.367 20.1258H21.2737V18.5069H23.1342C23.7217 18.5069 24.1978 18.0307 24.1978 17.4433C24.1978 16.8559 23.7217 16.3797 23.1342 16.3797H21.2737V14.7609H23.367C23.9544 14.7609 24.4306 14.2847 24.4306 13.6973C24.4306 13.1098 23.9544 12.6337 23.367 12.6337H20.2101C19.6227 12.6337 19.1465 13.1098 19.1465 13.6973V21.1894C19.1465 21.7768 19.6227 22.253 20.2101 22.253Z" fill="white"/>
<path d="M17.285 19.7722C17.4816 18.6708 16.9876 17.2341 15.0113 16.5051L13.3026 15.8239C12.8392 15.627 12.8654 14.9528 13.3465 14.8046C13.3517 14.803 13.3568 14.8014 13.362 14.7999C14.3745 14.495 15.3275 15.2542 15.3275 15.2542C15.7831 15.6269 16.4585 15.6077 16.8447 15.1635C17.246 14.7041 17.175 13.9997 16.6964 13.6259C16.6229 13.5642 14.8747 12.1225 12.7484 12.7631C10.4839 13.3952 9.93047 16.4224 12.0101 17.5823C12.054 17.6019 13.0988 18.0669 14.2751 18.5008C14.5119 18.5881 15.2778 18.9111 15.1908 19.3983C15.1343 19.7147 14.7234 20.1603 13.9866 20.1603C13.2809 20.1603 12.6024 19.8822 12.1637 19.4147C11.7609 18.9855 11.0889 18.9161 10.6477 19.3058C10.2028 19.6989 10.166 20.3786 10.5636 20.8173C11.4103 21.7516 12.658 22.2875 13.9866 22.2875C15.6376 22.2875 17.0247 21.2296 17.285 19.7722Z" fill="white"/>
<path d="M30.8618 22.2874C33.5329 22.2874 35.706 20.1143 35.706 17.4432C35.706 14.7721 33.5329 12.599 30.8618 12.599C28.1907 12.599 26.0176 14.7721 26.0176 17.4432C26.0176 20.1144 28.1906 22.2874 30.8618 22.2874ZM30.8618 14.7263C32.36 14.7263 33.5788 15.9451 33.5788 17.4433C33.5788 18.9415 32.36 20.1603 30.8618 20.1603C29.3636 20.1603 28.1448 18.9415 28.1448 17.4433C28.1448 15.9451 29.3636 14.7263 30.8618 14.7263Z" fill="white"/>
</svg>
