<svg width="41" height="41" viewBox="0 0 41 41" fill="none" xmlns="http://www.w3.org/2000/svg">
<path d="M14.2195 5.87138C14.1837 6.54761 14.7213 7.12575 15.4013 7.12346C16.0813 7.12567 16.6189 6.54761 16.5831 5.8713C16.5208 4.30376 14.2815 4.30415 14.2195 5.87138Z" fill="white"/>
<path d="M9.49192 5.87138C9.45615 6.54761 9.99372 7.12575 10.6737 7.12346C11.3537 7.12567 11.8914 6.54761 11.8555 5.8713C11.7933 4.30376 9.55393 4.30415 9.49192 5.87138Z" fill="white"/>
<path d="M4.76536 5.87138C4.72959 6.54761 5.26715 7.12575 5.94716 7.12346C6.62717 7.12567 7.16482 6.54761 7.12897 5.8713C7.06673 4.30376 4.82736 4.30415 4.76536 5.87138Z" fill="white"/>
<path d="M1.1818 40.3203H39.1571C39.8098 40.3203 40.3389 39.7912 40.3389 39.1385V1.1818C40.3389 0.529133 39.8098 0 39.1571 0H1.1818C0.529133 0 0 0.529133 0 1.1818V39.1385C0 39.7912 0.529133 40.3203 1.1818 40.3203ZM2.36361 2.36361H37.9753V9.41685H2.36361V2.36361ZM2.36361 11.7805H37.9753V37.9567H2.36361V11.7805Z" fill="white"/>
<path d="M18.3906 21.1118C18.6141 21.3054 18.8896 21.4003 19.1638 21.4003C19.4948 21.4003 19.824 21.262 20.0577 20.9922L22.1502 18.5759C22.5348 18.1318 22.5348 17.4727 22.1502 17.0285L20.0577 14.6122C19.6305 14.1189 18.884 14.0653 18.3906 14.4925C17.8972 14.9198 17.8437 15.6662 18.2709 16.1596L19.6934 17.8022L18.2709 19.4449C17.8436 19.9381 17.8972 20.6845 18.3906 21.1118Z" fill="white"/>
<path d="M7.10764 20.9923C7.34132 21.2621 7.6705 21.4004 8.00148 21.4004C8.27566 21.4004 8.55118 21.3055 8.77462 21.1119C9.26798 20.6847 9.32156 19.9383 8.89429 19.4449L7.4718 17.8023L8.89429 16.1596C9.32156 15.6663 9.26798 14.9199 8.77462 14.4926C8.28125 14.0653 7.5349 14.1188 7.10756 14.6123L5.01498 17.0286C4.63042 17.4727 4.63042 18.1318 5.01498 18.5759L7.10764 20.9923Z" fill="white"/>
<path d="M12.2267 21.2252C12.3695 21.2817 12.5166 21.3085 12.6613 21.3085C13.1319 21.3085 13.5768 21.0255 13.7605 20.5613L15.6004 15.913C15.8407 15.3061 15.5434 14.6195 14.9365 14.3792C14.3295 14.1389 13.643 14.4362 13.4027 15.0431L11.5627 19.6915C11.3226 20.2983 11.6198 20.985 12.2267 21.2252Z" fill="white"/>
<path d="M34.4293 33.1954H5.80778C5.15511 33.1954 4.62598 33.7246 4.62598 34.3772C4.62598 35.0299 5.15511 35.559 5.80778 35.559H34.4293C35.082 35.559 35.6111 35.0299 35.6111 34.3772C35.6111 33.7246 35.082 33.1954 34.4293 33.1954Z" fill="white"/>
<path d="M34.4293 28.4683H5.80778C5.15511 28.4683 4.62598 28.9974 4.62598 29.6501C4.62598 30.3027 5.15511 30.8319 5.80778 30.8319H34.4293C35.082 30.8319 35.6111 30.3027 35.6111 29.6501C35.6111 28.9974 35.082 28.4683 34.4293 28.4683Z" fill="white"/>
<path d="M34.4293 23.741H5.80778C5.15511 23.741 4.62598 24.2701 4.62598 24.9228C4.62598 25.5754 5.15511 26.1046 5.80778 26.1046H34.4293C35.082 26.1046 35.6111 25.5754 35.6111 24.9228C35.6111 24.2701 35.082 23.741 34.4293 23.741Z" fill="white"/>
</svg>
