<svg width="41" height="41" viewBox="0 0 41 41" fill="none" xmlns="http://www.w3.org/2000/svg">
<path d="M15.4005 7.1235C16.0532 7.1235 16.5823 6.59438 16.5823 5.94172V5.87136C16.5823 5.2187 16.0532 4.68958 15.4005 4.68958C14.7479 4.68958 14.2188 5.2187 14.2188 5.87136V5.94172C14.2188 6.59438 14.7479 7.1235 15.4005 7.1235Z" fill="white"/>
<path d="M10.672 7.1235C11.3247 7.1235 11.8538 6.59438 11.8538 5.94172V5.87136C11.8538 5.2187 11.3247 4.68958 10.672 4.68958C10.0194 4.68958 9.49023 5.2187 9.49023 5.87136V5.94172C9.49023 6.59438 10.0194 7.1235 10.672 7.1235Z" fill="white"/>
<path d="M5.94741 7.1235C6.60007 7.1235 7.1292 6.59438 7.1292 5.94172V5.87136C7.1292 5.2187 6.60007 4.68958 5.94741 4.68958C5.29475 4.68958 4.76562 5.2187 4.76562 5.87136V5.94172C4.76562 6.59438 5.29475 7.1235 5.94741 7.1235Z" fill="white"/>
<path d="M1.18179 0C0.529125 0 0 0.529125 0 1.18179V39.138C0 39.7906 0.529125 40.3197 1.18179 40.3197H39.1565C39.8092 40.3197 40.3383 39.7906 40.3383 39.138V1.18179C40.3383 0.529125 39.8092 0 39.1565 0H1.18179ZM37.9748 37.9562H2.36357V11.7804H37.9748V37.9562ZM37.9748 9.41679H2.36357V2.36357H37.9748V9.41679Z" fill="white"/>
<path d="M5.83551 30.1012C6.13482 30.1012 6.43437 29.9881 6.66442 29.7615L15.7684 20.7998L24.3729 29.7389C24.5958 29.9705 24.9032 30.1012 25.2244 30.1012H25.2293C25.5522 30.0998 25.8606 29.9664 26.0825 29.7318L33.3204 22.0865V26.0811C33.3204 26.7337 33.8495 27.2629 34.5022 27.2629C35.1549 27.2629 35.684 26.7337 35.684 26.0811V19.1192C35.684 18.4666 35.1549 17.9375 34.5022 17.9375H27.5404C26.8877 17.9375 26.3586 18.4666 26.3586 19.1192C26.3586 19.7719 26.8877 20.301 27.5404 20.301H31.756L25.2173 27.2079L16.6425 18.2997C16.4236 18.0722 16.1227 17.9419 15.807 17.9375C15.4917 17.9306 15.1871 18.0555 14.9621 18.2771L5.00645 28.0772C4.252 28.8158 4.79397 30.1074 5.83551 30.1012Z" fill="white"/>
</svg>
