<svg width="16" height="16" viewBox="0 0 16 16" fill="none" xmlns="http://www.w3.org/2000/svg">
<path d="M0 8.85714C5.32029 10.06 5.71429 15.4286 5.71429 15.4286C5.71429 15.4286 6.10829 10.06 11.4286 8.85714C6.10829 7.65429 5.71429 2.28571 5.71429 2.28571C5.71429 2.28571 5.32029 7.65429 0 8.85714Z" fill="#1D1D1E"/>
<path d="M9.71429 12.5714C12.6403 13.2 12.8571 16 12.8571 16C12.8571 16 13.074 13.2 16 12.5714C13.074 11.9429 12.8571 9.14286 12.8571 9.14286C12.8571 9.14286 12.6403 11.9429 9.71429 12.5714Z" fill="#1D1D1E"/>
<path d="M7.71429 3.42857C10.6403 4.05714 10.8571 6.85714 10.8571 6.85714C10.8571 6.85714 11.074 4.05714 14 3.42857C11.074 2.8 10.8571 0 10.8571 0C10.8571 0 10.6403 2.8 7.71429 3.42857Z" fill="#1D1D1E"/>
</svg>
