<svg width="75" height="75" viewBox="0 0 75 75" fill="none" xmlns="http://www.w3.org/2000/svg">
<path d="M0 0H75V75H0V0Z" fill="#1D1D1E"/>
<path d="M53.5311 30.3113L49.9579 28.1734L49.1528 24.8409C48.7954 23.3629 47.4265 22.3775 45.9255 22.4957L41.8369 22.8121L39.4947 20.7384C38.3412 19.7541 36.6629 19.7541 35.5054 20.7373L33.1632 22.812L29.0746 22.4956C27.5906 22.3915 26.2037 23.3638 25.8843 24.7196C25.8182 24.9251 24.6241 28.6367 24.7016 28.3956L21.4695 30.3102C20.1747 31.1053 19.656 32.7014 20.2358 34.1054L21.6307 37.4859L20.2368 40.8655C19.656 42.2705 20.1757 43.8656 21.4695 44.6597L25.0391 46.7826L25.8471 50.1302C26.2026 51.6071 27.5655 52.5875 29.0745 52.4754L33.119 52.163L35.5052 54.261C36.0831 54.7536 36.7911 55 37.5 55C38.208 55 38.917 54.7536 39.4947 54.261L41.881 52.1629L45.9255 52.4753C47.4536 52.5964 48.7974 51.6081 49.1528 50.1301L49.9579 46.7976L53.5311 44.6597C54.8239 43.8656 55.3426 42.2705 54.7638 40.8655L53.3689 37.486L54.7648 34.1044C55.3436 32.7015 54.8249 31.1053 53.5311 30.3113ZM37.5 48.7793C31.2806 48.7793 26.2207 43.7194 26.2207 37.5C26.2207 31.2806 31.2806 26.2207 37.5 26.2207C43.7194 26.2207 48.7793 31.2806 48.7793 37.5C48.7793 43.7194 43.7194 48.7793 37.5 48.7793Z" fill="white"/>
<path d="M37.5 28.2716C32.4111 28.2716 28.2715 32.4112 28.2715 37.5001C28.2715 42.589 32.4111 46.7286 37.5 46.7286C42.5889 46.7286 46.7285 42.589 46.7285 37.5001C46.7285 32.4112 42.5889 28.2716 37.5 28.2716ZM43.3519 35.1489L37.1996 41.3012C36.9993 41.5015 36.7369 41.6017 36.4746 41.6017C36.2123 41.6017 35.9499 41.5015 35.7497 41.3012L31.6481 37.1997C31.2476 36.7992 31.2476 36.1502 31.6481 35.7497C32.0486 35.3492 32.6976 35.3492 33.0981 35.7497L36.4746 39.1263L41.902 33.6989C42.3025 33.2984 42.9515 33.2984 43.352 33.6989C43.7525 34.0994 43.7525 34.7484 43.3519 35.1489Z" fill="white"/>
</svg>
