<svg width="24" height="24" viewBox="0 0 24 24" fill="none" xmlns="http://www.w3.org/2000/svg">
<path d="M0 0H24V24H0V0Z" fill="white"/>
<path d="M6.33333 17.3333C6.06667 17.3333 5.83333 17.2333 5.63333 17.0333C5.43333 16.8333 5.33333 16.6 5.33333 16.3333V7.66667C5.33333 7.4 5.43333 7.16667 5.63333 6.96667C5.83333 6.76667 6.06667 6.66667 6.33333 6.66667H17.6667C17.9333 6.66667 18.1667 6.76667 18.3667 6.96667C18.5667 7.16667 18.6667 7.4 18.6667 7.66667V16.3333C18.6667 16.6 18.5667 16.8333 18.3667 17.0333C18.1667 17.2333 17.9333 17.3333 17.6667 17.3333H6.33333ZM12 12.3L17.6667 8.58333V7.66667L12 11.3L6.33333 7.66667V8.58333L12 12.3Z" fill="#1D1D1E"/>
</svg>
