<svg width="53" height="50" viewBox="0 0 53 50" fill="none" xmlns="http://www.w3.org/2000/svg">
<path d="M19.7664 47.2641C18.8543 47.1989 17.9872 46.9114 17.4668 46.1079C17.1525 45.6228 16.9761 45.0362 16.8624 44.4722C16.8053 44.1898 16.7659 43.9028 16.7184 43.6188C16.4359 41.9371 16.16 40.254 15.8897 38.5703C15.5158 36.2393 15.152 33.9068 14.8134 31.5703C14.6542 30.4717 14.5001 29.3722 14.3596 28.2706C14.2005 27.0235 13.8159 25.4778 14.4622 24.3217C15.3945 22.6542 17.8139 22.59 19.4733 22.5061C20.485 22.4551 22.5198 22.5506 22.82 21.2292C22.8912 20.9144 22.4071 20.78 22.3354 21.0958C22.1565 21.8856 20.9261 21.9164 20.2828 21.9599C19.4147 22.0185 18.5431 22.0291 17.679 22.1423C16.3505 22.3161 14.8265 22.7679 14.0787 23.9786C13.3662 25.1317 13.6477 26.589 13.8048 27.8553C13.9412 28.9518 14.0918 30.0463 14.248 31.1398C14.8548 35.3879 15.54 39.6249 16.2515 43.8563C16.3344 44.3505 16.4112 44.83 16.5638 45.3105C17.0549 46.8548 18.1605 47.6521 19.7669 47.7668C20.0888 47.7896 20.0878 47.2868 19.7664 47.2641Z" fill="#1D1D1E"/>
<path d="M29.7698 21.229C30.0209 22.3356 31.5177 22.4129 32.4227 22.469C34.0083 22.5676 35.739 22.51 37.1498 23.3579C38.6773 24.276 38.5151 25.9248 38.3307 27.464C38.2013 28.5433 38.0599 29.6211 37.9133 30.6984C37.355 34.799 36.7344 38.891 36.0942 42.9794C36.0326 43.3745 35.9765 43.7717 35.9073 44.1658C35.6758 45.4908 34.7082 47.1633 33.2125 47.2795C32.8921 47.3043 32.8896 47.8071 33.2125 47.7823C35.1119 47.6348 36.1776 45.6585 36.4434 43.9759C36.689 42.421 36.929 40.8657 37.1655 39.3099C37.5364 36.8682 37.8987 34.4251 38.2397 31.9789C38.4035 30.8035 38.5631 29.6272 38.7117 28.4498C38.8618 27.2634 39.1544 25.9597 38.8471 24.7813C38.4535 23.271 36.9886 22.5372 35.5662 22.2477C34.6465 22.0607 33.7036 22.0375 32.7698 21.987C32.0538 21.9486 30.4621 22.0082 30.2549 21.0961C30.1832 20.7803 29.6981 20.9137 29.7698 21.229Z" fill="#1D1D1E"/>
<path d="M32.0408 20.5525C28.6946 20.5525 25.348 20.5525 22.0018 20.5525C21.5168 20.5525 21.0311 20.5525 20.5461 20.5525C20.6315 20.6379 20.7174 20.7233 20.8028 20.8092C20.8028 18.0386 20.8028 15.2685 20.8028 12.4979C20.8028 9.4954 20.731 6.48377 20.8028 3.48175C20.8316 2.27559 21.5824 1.30035 22.6835 0.836476C23.5319 0.479225 24.4445 0.545422 25.3429 0.545422C27.401 0.545422 30.1332 0.119954 31.3889 2.18918C31.9564 3.124 31.7841 4.41101 31.7841 5.46306C31.7841 7.26953 31.7841 9.07549 31.7841 10.8815C31.7841 14.127 31.7254 17.3787 31.7841 20.6237C31.7851 20.6854 31.7841 20.7465 31.7841 20.8082C31.7841 21.1381 32.2969 21.1387 32.2969 20.8082C32.2969 17.8334 32.2969 14.8592 32.2969 11.8845C32.2969 9.90166 32.2969 7.91834 32.2969 5.93552C32.2969 4.95876 32.4339 3.84103 32.2156 2.8764C31.922 1.58231 30.829 0.612628 29.5925 0.229606C28.7391 -0.0346689 27.825 0.031527 26.9432 0.031527C24.9498 0.031527 22.5344 -0.326231 21.0792 1.36856C20.1913 2.40292 20.2899 3.60657 20.2899 4.86023C20.2899 6.67478 20.2899 8.48984 20.2899 10.3044C20.2899 13.7379 20.2323 17.1771 20.2899 20.6101C20.2909 20.6758 20.2899 20.7415 20.2899 20.8072C20.2899 20.9456 20.4076 21.0639 20.5466 21.0639C23.8927 21.0639 27.2393 21.0639 30.5855 21.0639C31.0706 21.0639 31.5562 21.0639 32.0413 21.0639C32.3707 21.0659 32.3712 20.5525 32.0408 20.5525Z" fill="#1D1D1E"/>
<path d="M20.211 49.7357C19.9038 47.1622 20.0175 44.5209 20.2216 41.9439C20.4369 39.2243 20.7027 36.1708 22.3065 33.8671C23.9462 31.5124 27.0569 30.7226 29.4364 32.4649C31.8729 34.2491 32.3242 37.5412 32.6016 40.3385C32.9113 43.4563 32.9119 46.6084 32.7633 49.7357C32.7466 50.0889 33.2954 50.0879 33.3121 49.7357C33.4606 46.6089 33.4606 43.4563 33.1504 40.3385C32.8714 37.5376 32.4369 34.3395 30.1984 32.3774C28.1999 30.6255 25.3823 30.4765 23.2509 32.0955C20.8042 33.954 20.1787 37.2577 19.8472 40.1303C19.4834 43.285 19.2843 46.5735 19.6617 49.7357C19.7032 50.0823 20.2524 50.0864 20.211 49.7357Z" fill="#1D1D1E"/>
<path d="M30.4991 31.5421C30.25 29.7356 29.9852 27.8114 28.9802 26.3526C28.1272 25.1146 26.726 24.3142 25.391 24.8594C23.9489 25.4486 23.1328 27.0823 22.6997 28.7296C22.1869 30.6826 21.9479 32.77 21.9034 34.8114C21.8599 36.7983 21.9827 38.8736 22.4218 40.7983C22.7892 42.4087 23.535 43.8675 24.87 44.535C26.1965 45.1985 27.7821 44.9984 28.9251 43.9443C29.775 43.1611 30.3425 41.9994 30.5436 40.7528C31.2718 37.7927 30.915 34.5598 30.4991 31.5421Z" fill="#1D1D1E" stroke="#1D1D1E" stroke-width="0.541925" stroke-miterlimit="10"/>
<path d="M15.5316 10.727C14.517 10.4966 13.7292 9.45412 13.5933 8.13578C13.568 7.88969 13.2158 7.8902 13.19 8.13578C13.0516 9.45412 12.2476 10.4966 11.2123 10.727C10.9788 10.779 10.9743 11.2818 11.2123 11.3283C12.2578 11.5329 13.0455 12.5506 13.2128 13.8604C13.2199 13.917 13.2461 13.9655 13.2835 13.9968C13.3856 14.0822 13.5503 14.0287 13.571 13.8604C13.7348 12.5506 14.5069 11.5324 15.5316 11.3278C15.7651 11.2818 15.7605 10.779 15.5316 10.727Z" fill="#1D1D1E"/>
<path d="M2.58483 20.5527C2.00171 20.4228 1.54895 19.8372 1.47063 19.0959C1.45598 18.9575 1.25386 18.958 1.2387 19.0959C1.15886 19.8372 0.697008 20.4233 0.101758 20.5527C-0.0326532 20.582 -0.0351797 20.8645 0.101758 20.8908C0.702567 21.006 1.15532 21.578 1.25133 22.3147C1.25537 22.3465 1.27053 22.3738 1.29175 22.3915C1.35037 22.4395 1.44486 22.4097 1.45699 22.3147C1.55097 21.578 1.99463 21.006 2.58382 20.8908C2.71874 20.865 2.71621 20.582 2.58483 20.5527Z" fill="#1D1D1E"/>
<path d="M47.3665 35.9733C46.3519 35.7429 45.5636 34.7005 45.4282 33.3821C45.4029 33.136 45.0507 33.1365 45.025 33.3821C44.8865 34.7005 44.0826 35.7429 43.0472 35.9733C42.8137 36.0254 42.8092 36.5282 43.0472 36.5746C44.0927 36.7793 44.8804 37.797 45.0477 39.1072C45.0548 39.1643 45.081 39.2123 45.1184 39.2437C45.2205 39.3291 45.3852 39.2755 45.4065 39.1072C45.5702 37.7975 46.3423 36.7793 47.3671 36.5746C47.6 36.5282 47.5954 36.0254 47.3665 35.9733Z" fill="#1D1D1E"/>
<path d="M52.7118 23.8467C52.1286 23.7169 51.6754 23.1312 51.5976 22.3899C51.5829 22.2515 51.3808 22.252 51.3656 22.3899C51.2863 23.1312 50.8239 23.7174 50.2292 23.8467C50.0948 23.8761 50.0923 24.1585 50.2292 24.1848C50.83 24.3 51.2828 24.872 51.3788 25.6087C51.3828 25.6406 51.398 25.6679 51.4192 25.6856C51.4778 25.7336 51.5723 25.7037 51.5844 25.6087C51.6784 24.872 52.1221 24.3 52.7113 24.1848C52.8457 24.1585 52.8431 23.8761 52.7118 23.8467Z" fill="#1D1D1E"/>
<path d="M7.84283 31.8692C6.74228 31.619 5.8878 30.4887 5.74076 29.0592C5.71347 28.7924 5.33146 28.7929 5.30317 29.0592C5.15309 30.4887 4.28094 31.619 3.15865 31.8692C2.90549 31.9252 2.90044 32.4705 3.15865 32.521C4.29256 32.7428 5.14652 33.8469 5.32793 35.2673C5.33551 35.329 5.36381 35.3815 5.40474 35.4154C5.5159 35.5079 5.69377 35.4503 5.71701 35.2673C5.89488 33.8469 6.73167 32.7428 7.84334 32.521C8.09599 32.4705 8.09094 31.9252 7.84283 31.8692Z" fill="#1D1D1E"/>
<path d="M44.7941 12.475C43.6936 12.2249 42.8391 11.0945 42.692 9.66503C42.6648 9.39823 42.2827 9.39874 42.2544 9.66503C42.1044 11.0945 41.2327 12.2249 40.1099 12.475C39.8568 12.5316 39.8517 13.0764 40.1099 13.1269C41.2438 13.3487 42.0978 14.4523 42.2792 15.8727C42.2873 15.9344 42.3151 15.9869 42.356 16.0208C42.4672 16.1132 42.645 16.0556 42.6683 15.8727C42.8462 14.4523 43.6829 13.3482 44.7946 13.1264C45.0473 13.0769 45.0422 12.5316 44.7941 12.475Z" fill="#1D1D1E"/>
</svg>
