<svg width="75" height="75" viewBox="0 0 75 75" fill="none" xmlns="http://www.w3.org/2000/svg">
<path d="M0 0H75V75H0V0Z" fill="#1D1D1E"/>
<path d="M48.3035 30.4095L42.5252 29.5698L39.941 24.3338C38.9433 22.3119 36.0571 22.3111 35.0589 24.3338L32.4747 29.5698L26.6964 30.4095C24.4651 30.7336 23.5727 33.4782 25.1878 35.0526L29.369 39.1283L28.382 44.8832C28.0008 47.1053 30.335 48.8023 32.3317 47.7529L37.5 45.0357L42.6683 47.7529C44.6674 48.8037 46.9983 47.1003 46.6178 44.8832L45.6308 39.1283L49.8121 35.0526C51.4266 33.4787 50.5356 30.7338 48.3035 30.4095Z" fill="white"/>
<path d="M29.2101 23.4013L27.8148 21.4809C27.436 20.9597 26.7064 20.8442 26.1853 21.2229C25.664 21.6016 25.5485 22.3312 25.9272 22.8525L27.3225 24.7728C27.7015 25.2943 28.4311 25.4095 28.952 25.0308C29.4733 24.6522 29.5888 23.9225 29.2101 23.4013Z" fill="white"/>
<path d="M24.5798 40.6111C24.3807 39.9984 23.7227 39.6628 23.1098 39.8621L20.8064 40.6106C20.1936 40.8096 19.8583 41.4678 20.0574 42.0806C20.2569 42.6946 20.9163 43.0285 21.5275 42.8296L23.8309 42.0812C24.4437 41.8822 24.779 41.224 24.5798 40.6111Z" fill="white"/>
<path d="M48.8151 21.223C48.2939 20.8442 47.5644 20.9597 47.1856 21.4809L45.7903 23.4013C45.4115 23.9225 45.5271 24.6522 46.0483 25.0308C46.5698 25.4097 47.2993 25.2939 47.6779 24.7729L49.0732 22.8525C49.452 22.3313 49.3364 21.6017 48.8151 21.223Z" fill="white"/>
<path d="M54.1932 40.6105L51.8898 39.862C51.277 39.6625 50.6189 39.9982 50.4197 40.611C50.2206 41.2238 50.5559 41.882 51.1687 42.0811L53.4722 42.8296C54.0837 43.0285 54.7428 42.6941 54.9422 42.0805C55.1413 41.4678 54.806 40.8096 54.1932 40.6105Z" fill="white"/>
<path d="M37.4996 49.6548C36.8553 49.6548 36.333 50.1771 36.333 50.8214V53.1892C36.333 53.8335 36.8553 54.3559 37.4996 54.3559C38.1439 54.3559 38.6662 53.8335 38.6662 53.1892V50.8214C38.6663 50.1771 38.144 49.6548 37.4996 49.6548Z" fill="white"/>
</svg>
