<svg width="24" height="24" viewBox="0 0 24 24" fill="none" xmlns="http://www.w3.org/2000/svg">
<path d="M0 0H24V24H0V0Z" fill="#F6E6D6"/>
<path d="M17.4618 9.58271C17.4692 9.69497 17.4692 9.80777 17.4692 9.92109C17.4692 13.3831 14.8335 17.375 10.0153 17.375V17.3729C8.59211 17.375 7.19816 16.9675 6 16.1987C6.20696 16.2237 6.41499 16.2359 6.62355 16.2364C7.80362 16.2375 8.94964 15.8417 9.87699 15.1128C8.75598 15.0915 7.77276 14.3604 7.4296 13.2932C7.82224 13.3687 8.22659 13.3533 8.61233 13.2485C7.38969 13.0016 6.51076 11.9274 6.51076 10.6803C6.51076 10.6691 6.51076 10.658 6.51076 10.6473C6.87521 10.8506 7.28275 10.9628 7.69987 10.9751C6.54853 10.2063 6.19313 8.67505 6.88851 7.47795C8.21861 9.11452 10.1813 10.1094 12.2877 10.2153C12.0764 9.30552 12.3653 8.3521 13.0453 7.71205C14.1003 6.7198 15.7598 6.77087 16.752 7.82591C17.3389 7.71046 17.9012 7.49498 18.4157 7.19012C18.2199 7.79665 17.8108 8.31166 17.2639 8.6394C17.7837 8.57715 18.2907 8.43829 18.769 8.22654C18.4173 8.75273 17.9747 9.21188 17.4618 9.58271Z" fill="#1D1D1E"/>
</svg>
