<svg width="14" height="14" viewBox="0 0 14 14" fill="none" xmlns="http://www.w3.org/2000/svg">
<path d="M9.57273 10.3778L10.3603 9.59023L7.57768 6.79017V3.27258H6.52766V7.21018L9.57273 10.3778ZM7.00017 14.0003C6.04348 14.0003 5.13929 13.8166 4.2876 13.4491C3.43592 13.0816 2.69215 12.5799 2.0563 11.944C1.42045 11.3082 0.918772 10.5644 0.551263 9.71274C0.183754 8.86105 0 7.95686 0 7.00017C0 6.04348 0.183754 5.13929 0.551263 4.2876C0.918772 3.43592 1.42045 2.69215 2.0563 2.0563C2.69215 1.42045 3.43592 0.918772 4.2876 0.551263C5.13929 0.183754 6.04348 0 7.00017 0C7.95686 0 8.86105 0.183754 9.71274 0.551263C10.5644 0.918772 11.3082 1.42045 11.944 2.0563C12.5799 2.69215 13.0816 3.43592 13.4491 4.2876C13.8166 5.13929 14.0003 6.04348 14.0003 7.00017C14.0003 7.95686 13.8166 8.86105 13.4491 9.71274C13.0816 10.5644 12.5799 11.3082 11.944 11.944C11.3082 12.5799 10.5644 13.0816 9.71274 13.4491C8.86105 13.8166 7.95686 14.0003 7.00017 14.0003Z" fill="#1D1D1E"/>
</svg>
