<svg width="35" height="35" viewBox="0 0 35 35" fill="none" xmlns="http://www.w3.org/2000/svg">
<path d="M23.083 13.2497C23.9163 14.1663 24.4163 15.1663 24.4163 16.833C24.4163 19.7497 22.333 22.333 19.4163 23.6663L18.6663 22.583C21.4163 21.083 21.9997 19.1663 22.1663 17.9163C21.7497 18.1663 21.1663 18.2497 20.583 18.1663C19.083 17.9997 17.9163 16.833 17.9163 15.2497C17.9163 14.4997 18.2497 13.7497 18.7497 13.1663C19.333 12.583 19.9997 12.333 20.833 12.333C21.7497 12.333 22.583 12.7497 23.083 13.2497ZM14.7497 13.2497C15.583 14.1663 16.083 15.1663 16.083 16.833C16.083 19.7497 13.9997 22.333 11.083 23.6663L10.333 22.583C13.083 21.083 13.6663 19.1663 13.833 17.9163C13.4163 18.1663 12.833 18.2497 12.2497 18.1663C10.7497 17.9997 9.58301 16.7497 9.58301 15.2497C9.58301 14.4997 9.91634 13.7497 10.4163 13.1663C10.9997 12.583 11.6663 12.333 12.4997 12.333C13.4163 12.333 14.2497 12.7497 14.7497 13.2497Z" fill="#1D1D1E"/>
<path d="M35 0V35H0V0H35ZM1 34H34V1H1V34Z" fill="#1D1D1E"/>
</svg>
