<svg width="75" height="75" viewBox="0 0 75 75" fill="none" xmlns="http://www.w3.org/2000/svg">
<path d="M0 0H75V75H0V0Z" fill="#1D1D1E"/>
<path d="M49.948 39.029H47.2412C47.5171 39.7844 47.6678 40.5996 47.6678 41.4492V51.6792C47.6678 52.0334 47.6062 52.3735 47.494 52.6897H51.9689C53.6405 52.6897 55.0004 51.3297 55.0004 49.6582V44.0814C55.0004 41.2955 52.7339 39.029 49.948 39.029Z" fill="white"/>
<path d="M27.3326 41.4492C27.3326 40.5995 27.4833 39.7844 27.7592 39.029H25.0525C22.2665 39.029 20 41.2955 20 44.0815V49.6583C20 51.3298 21.3599 52.6898 23.0315 52.6898H27.5064C27.3942 52.3734 27.3326 52.0334 27.3326 51.6792V41.4492Z" fill="white"/>
<path d="M40.5941 36.3968H34.406C31.6201 36.3968 29.3536 38.6633 29.3536 41.4492V51.6792C29.3536 52.2372 29.806 52.6897 30.3641 52.6897H44.636C45.1941 52.6897 45.6465 52.2373 45.6465 51.6792V41.4492C45.6465 38.6633 43.38 36.3968 40.5941 36.3968Z" fill="white"/>
<path d="M37.5 23C34.1496 23 31.4238 25.7258 31.4238 29.0763C31.4238 31.3489 32.6782 33.3337 34.5306 34.3758C35.4092 34.87 36.4221 35.1525 37.5 35.1525C38.5779 35.1525 39.5909 34.87 40.4695 34.3758C42.322 33.3337 43.5762 31.3488 43.5762 29.0763C43.5762 25.7258 40.8505 23 37.5 23Z" fill="white"/>
<path d="M26.8303 28.6635C24.3246 28.6635 22.2861 30.702 22.2861 33.2077C22.2861 35.7134 24.3246 37.7519 26.8303 37.7519C27.466 37.7519 28.0712 37.6203 28.621 37.3836C29.5716 36.9743 30.3554 36.2498 30.8405 35.3424C31.1809 34.7055 31.3745 33.9789 31.3745 33.2077C31.3745 30.7021 29.3361 28.6635 26.8303 28.6635Z" fill="white"/>
<path d="M48.1692 28.6637C45.6635 28.6637 43.625 30.7022 43.625 33.2079C43.625 33.9791 43.8187 34.7057 44.1591 35.3425C44.6441 36.2501 45.4279 36.9746 46.3785 37.3838C46.9283 37.6204 47.5336 37.7521 48.1692 37.7521C50.6749 37.7521 52.7134 35.7136 52.7134 33.2079C52.7134 30.7022 50.6749 28.6637 48.1692 28.6637Z" fill="white"/>
</svg>
