<svg width="24" height="24" viewBox="0 0 24 24" fill="none" xmlns="http://www.w3.org/2000/svg">
<path d="M0 0H24V24H0V0Z" fill="#F6E6D6"/>
<path d="M11.5312 6.17671C13.2751 6.17671 13.4819 6.18324 14.1704 6.21481C14.8823 6.24747 15.6155 6.40966 16.1341 6.92835C16.6577 7.45194 16.815 8.178 16.8477 8.89208C16.8793 9.58058 16.8858 9.78741 16.8858 11.5312C16.8858 13.2751 16.8793 13.4819 16.8477 14.1704C16.8156 14.8785 16.6496 15.6187 16.1341 16.1341C15.6106 16.6577 14.885 16.815 14.1704 16.8477C13.4819 16.8793 13.2751 16.8858 11.5312 16.8858C9.78741 16.8858 9.58058 16.8793 8.89208 16.8477C8.18943 16.8156 7.43942 16.6458 6.92835 16.1341C6.40748 15.6133 6.24747 14.8801 6.21481 14.1704C6.18324 13.4819 6.17671 13.2751 6.17671 11.5312C6.17671 9.78741 6.18324 9.58058 6.21481 8.89208C6.24692 8.18671 6.41456 7.44214 6.92835 6.92835C7.45085 6.40585 8.17963 6.24747 8.89208 6.21481C9.58058 6.18324 9.78741 6.17671 11.5312 6.17671ZM11.5312 5C9.75747 5 9.53486 5.00762 8.8382 5.03919C7.82858 5.08545 6.82603 5.36629 6.09616 6.09616C5.36357 6.82875 5.08545 7.82912 5.03919 8.8382C5.00762 9.53486 5 9.75747 5 11.5312C5 13.305 5.00762 13.5276 5.03919 14.2243C5.08545 15.2328 5.36738 16.2381 6.09616 16.9663C6.82821 17.6984 7.83021 17.977 8.8382 18.0233C9.53486 18.0549 9.75747 18.0625 11.5312 18.0625C13.305 18.0625 13.5276 18.0549 14.2243 18.0233C15.2334 17.977 16.237 17.6957 16.9663 16.9663C17.6995 16.2332 17.977 15.2334 18.0233 14.2243C18.0549 13.5276 18.0625 13.305 18.0625 11.5312C18.0625 9.75747 18.0549 9.53486 18.0233 8.8382C17.977 7.82858 17.6957 6.82548 16.9663 6.09616C16.2354 5.36521 15.2307 5.08491 14.2243 5.03919C13.5276 5.00762 13.305 5 11.5312 5Z" fill="#1D1D1E"/>
<path d="M11.5308 8.17742C9.67867 8.17742 8.17702 9.67906 8.17702 11.5312C8.17702 13.3834 9.67867 14.885 11.5308 14.885C13.383 14.885 14.8846 13.3834 14.8846 11.5312C14.8846 9.67906 13.383 8.17742 11.5308 8.17742ZM11.5308 13.7083C10.3285 13.7083 9.35374 12.7335 9.35374 11.5312C9.35374 10.3289 10.3285 9.35413 11.5308 9.35413C12.7331 9.35413 13.7079 10.3289 13.7079 11.5312C13.7079 12.7335 12.7331 13.7083 11.5308 13.7083Z" fill="#1D1D1E"/>
<path d="M15.0174 8.82844C15.4502 8.82844 15.8011 8.47754 15.8011 8.04469C15.8011 7.61184 15.4502 7.26094 15.0174 7.26094C14.5845 7.26094 14.2336 7.61184 14.2336 8.04469C14.2336 8.47754 14.5845 8.82844 15.0174 8.82844Z" fill="#1D1D1E"/>
</svg>
