<svg width="24" height="24" viewBox="0 0 24 24" fill="none" xmlns="http://www.w3.org/2000/svg">
<path d="M0 0H24V24H0V0Z" fill="white"/>
<path d="M12.0015 11.8333C12.3227 11.8333 12.5972 11.719 12.825 11.4902C13.0528 11.2614 13.1667 10.9864 13.1667 10.6652C13.1667 10.344 13.0523 10.0694 12.8235 9.84167C12.5948 9.61389 12.3198 9.5 11.9985 9.5C11.6773 9.5 11.4028 9.61438 11.175 9.84315C10.9472 10.0719 10.8333 10.3469 10.8333 10.6682C10.8333 10.9894 10.9477 11.2639 11.1765 11.4917C11.4052 11.7194 11.6802 11.8333 12.0015 11.8333ZM12 18.6667C10.2111 17.1444 8.875 15.7306 7.99167 14.425C7.10833 13.1194 6.66667 11.9111 6.66667 10.8C6.66667 9.13333 7.20278 7.80556 8.275 6.81667C9.34722 5.82778 10.5889 5.33333 12 5.33333C13.4111 5.33333 14.6528 5.82778 15.725 6.81667C16.7972 7.80556 17.3333 9.13333 17.3333 10.8C17.3333 11.9111 16.8917 13.1194 16.0083 14.425C15.125 15.7306 13.7889 17.1444 12 18.6667Z" fill="#1D1D1E"/>
</svg>
