<svg width="24" height="24" viewBox="0 0 24 24" fill="none" xmlns="http://www.w3.org/2000/svg">
<path d="M0 0H24V24H0V0Z" fill="white"/>
<path d="M17.25 18C15.8944 18 14.5472 17.6667 13.2083 17C11.8694 16.3333 10.6667 15.4667 9.6 14.4C8.53333 13.3333 7.66667 12.1306 7 10.7917C6.33333 9.45278 6 8.10556 6 6.75C6 6.53889 6.07222 6.36111 6.21667 6.21667C6.36111 6.07222 6.53889 6 6.75 6H9.08333C9.23889 6 9.375 6.05278 9.49167 6.15833C9.60833 6.26389 9.68333 6.40556 9.71667 6.58333L10.1667 8.68333C10.1889 8.83889 10.1861 8.98056 10.1583 9.10833C10.1306 9.23611 10.0722 9.34444 9.98333 9.43333L8.31667 11.1167C8.93889 12.15 9.63611 13.05 10.4083 13.8167C11.1806 14.5833 12.0556 15.2333 13.0333 15.7667L14.6167 14.1333C14.7278 14.0111 14.8556 13.925 15 13.875C15.1444 13.825 15.2889 13.8167 15.4333 13.85L17.4167 14.2833C17.5833 14.3167 17.7222 14.4 17.8333 14.5333C17.9444 14.6667 18 14.8222 18 15V17.25C18 17.4611 17.9278 17.6389 17.7833 17.7833C17.6389 17.9278 17.4611 18 17.25 18Z" fill="#1D1D1E"/>
</svg>
