<svg width="24" height="24" viewBox="0 0 24 24" fill="none" xmlns="http://www.w3.org/2000/svg">
<path d="M0 0H24V24H0V0Z" fill="white"/>
<path d="M17.7866 17.768H15.3459V13.9457C15.3459 13.0342 15.3296 11.8613 14.0764 11.8613C12.8053 11.8613 12.6105 12.854 12.6105 13.8799V17.768H10.1705V9.90751H12.5139V10.9814H12.5463C13.0244 10.1648 13.9124 9.67698 14.858 9.71189C17.3321 9.71189 17.7875 11.3393 17.7875 13.4554L17.7866 17.768ZM7.41641 8.83282C6.63394 8.83282 6 8.19889 6 7.41641C6 6.63393 6.63394 6 7.41641 6C8.19889 6 8.83282 6.63393 8.83282 7.41641C8.83282 8.19889 8.19889 8.83282 7.41641 8.83282ZM8.63639 17.768H6.19318V9.90751H8.63639V17.768Z" fill="#1D1D1E"/>
</svg>
