<svg width="11" height="11" viewBox="0 0 11 11" fill="none" xmlns="http://www.w3.org/2000/svg">
<path d="M5.49983 5.15609C4.74361 5.15609 4.12487 4.91548 3.64364 4.43424C3.1624 3.953 2.92179 3.33427 2.92179 2.57805C2.92179 1.82182 3.1624 1.20309 3.64364 0.721853C4.12487 0.240618 4.74361 0 5.49983 0C6.25606 0 6.87479 0.240618 7.35603 0.721853C7.83726 1.20309 8.07788 1.82182 8.07788 2.57805C8.07788 3.33427 7.83726 3.953 7.35603 4.43424C6.87479 4.91548 6.25606 5.15609 5.49983 5.15609ZM0 10.6731V9.05754C0 8.62213 0.108851 8.24975 0.326553 7.94038C0.544254 7.63102 0.824975 7.39613 1.16871 7.23572C1.9364 6.89198 2.67257 6.63417 3.37724 6.4623C4.08191 6.29043 4.78944 6.2045 5.49983 6.2045C6.21023 6.2045 6.91489 6.2933 7.61383 6.4709C8.31277 6.6485 9.04608 6.90344 9.81376 7.23572C10.169 7.39613 10.4554 7.63102 10.6731 7.94038C10.8908 8.24975 10.9997 8.62213 10.9997 9.05754V10.6731H0Z" fill="#1D1D1E"/>
</svg>
