<svg width="75" height="75" viewBox="0 0 75 75" fill="none" xmlns="http://www.w3.org/2000/svg">
<path d="M0 0H75V75H0V0Z" fill="#1D1D1E"/>
<path d="M28.7219 42.153V45.6476C28.7219 46.2128 28.4975 46.7548 28.0982 47.1547C27.6988 47.5546 27.157 47.7797 26.5918 47.7804H23.9313C23.6506 47.7811 23.3725 47.7265 23.113 47.6197C22.8534 47.5128 22.6175 47.3559 22.4186 47.1578C22.2198 46.9597 22.0619 46.7244 21.9541 46.4652C21.8463 46.2061 21.7906 45.9283 21.7902 45.6476V42.153C21.2791 42.7566 20.999 43.5222 21 44.3132L21.0137 52.2429C21.0137 52.533 21.1289 52.8112 21.334 53.0163C21.5391 53.2214 21.8173 53.3366 22.1074 53.3366H28.4238C28.5679 53.3396 28.7112 53.3141 28.8454 53.2616C28.9796 53.209 29.1021 53.1304 29.2059 53.0304C29.3085 52.9296 29.3898 52.8091 29.4447 52.6761C29.4997 52.5431 29.5273 52.4004 29.5258 52.2566V44.3269C29.5262 43.5295 29.241 42.7583 28.7219 42.153Z" fill="white"/>
<path d="M35.2488 25.2929L35.968 25.539C36.0954 25.5812 36.2113 25.6526 36.3062 25.7476C36.4012 25.8425 36.4726 25.9584 36.5148 26.0859L36.7609 26.805C36.7655 26.8218 36.7754 26.8367 36.7893 26.8473C36.8031 26.8579 36.8201 26.8637 36.8375 26.8637C36.8549 26.8637 36.8719 26.8579 36.8857 26.8473C36.8996 26.8367 36.9095 26.8218 36.9141 26.805L37.1602 26.0859C37.2026 25.9584 37.2738 25.8425 37.3688 25.7476C37.4637 25.6526 37.5796 25.5812 37.707 25.539L38.4262 25.2929C38.4426 25.2875 38.4569 25.2771 38.467 25.2631C38.4771 25.2491 38.4826 25.2322 38.4826 25.215C38.4826 25.1977 38.4771 25.1809 38.467 25.1669C38.4569 25.1529 38.4426 25.1424 38.4262 25.137L37.707 24.8909C37.5796 24.8487 37.4637 24.7773 37.3688 24.6823C37.2738 24.5874 37.2026 24.4715 37.1602 24.3441L36.9141 23.6249C36.9095 23.6081 36.8996 23.5932 36.8857 23.5826C36.8719 23.572 36.8549 23.5663 36.8375 23.5663C36.8201 23.5663 36.8031 23.572 36.7893 23.5826C36.7754 23.5932 36.7655 23.6081 36.7609 23.6249L36.5148 24.3441C36.4726 24.4715 36.4012 24.5874 36.3062 24.6823C36.2113 24.7773 36.0954 24.8487 35.968 24.8909L35.2488 25.137C35.2324 25.1424 35.2181 25.1529 35.208 25.1669C35.1979 25.1809 35.1924 25.1977 35.1924 25.215C35.1924 25.2322 35.1979 25.2491 35.208 25.2631C35.2181 25.2771 35.2324 25.2875 35.2488 25.2929Z" fill="white"/>
<path d="M40.291 41.0292C40.291 41.5944 40.0667 42.1365 39.6673 42.5364C39.2679 42.9363 38.7261 43.1613 38.1609 43.162H35.4977C34.9325 43.1613 34.3907 42.9363 33.9913 42.5364C33.5919 42.1365 33.3676 41.5944 33.3676 41.0292V37.5402C32.8564 38.1438 32.5763 38.9094 32.5773 39.7003V52.2511C32.5773 52.5412 32.6926 52.8194 32.8977 53.0245C33.1028 53.2296 33.381 53.3448 33.6711 53.3448H39.9875C40.2776 53.3448 40.5558 53.2296 40.7609 53.0245C40.966 52.8194 41.0813 52.5412 41.0813 52.2511V39.7003C41.0848 38.9081 40.8045 38.1408 40.291 37.5374V41.0292Z" fill="white"/>
<path d="M25.3145 31.5545L26.0337 31.8006C26.161 31.843 26.2768 31.9145 26.3717 32.0094C26.4666 32.1044 26.5381 32.2201 26.5805 32.3475L26.8157 33.0694C26.8157 33.0918 26.8246 33.1134 26.8405 33.1293C26.8564 33.1452 26.878 33.1541 26.9004 33.1541C26.9229 33.1541 26.9445 33.1452 26.9604 33.1293C26.9763 33.1134 26.9852 33.0918 26.9852 33.0694L27.2313 32.3502C27.2737 32.2228 27.3452 32.1071 27.4401 32.0122C27.5351 31.9172 27.6508 31.8457 27.7782 31.8033L28.4973 31.5572C28.5142 31.5527 28.529 31.5427 28.5396 31.5289C28.5502 31.5151 28.556 31.4981 28.556 31.4807C28.556 31.4632 28.5502 31.4463 28.5396 31.4325C28.529 31.4186 28.5142 31.4087 28.4973 31.4041L27.7536 31.1553C27.6263 31.1127 27.5107 31.0411 27.4158 30.9462C27.3209 30.8513 27.2493 30.7357 27.2067 30.6084L26.9852 29.8975C26.9798 29.8811 26.9694 29.8668 26.9554 29.8566C26.9414 29.8465 26.9246 29.8411 26.9073 29.8411C26.89 29.8411 26.8732 29.8465 26.8592 29.8566C26.8452 29.8668 26.8347 29.8811 26.8294 29.8975L26.5696 30.6084C26.5289 30.7345 26.4597 30.8495 26.3671 30.9444C26.2746 31.0393 26.1614 31.1115 26.0364 31.1553L25.3145 31.4014C25.2977 31.4059 25.2828 31.4159 25.2722 31.4297C25.2616 31.4436 25.2559 31.4605 25.2559 31.478C25.2559 31.4954 25.2616 31.5123 25.2722 31.5262C25.2828 31.54 25.2977 31.55 25.3145 31.5545Z" fill="white"/>
<path d="M23.9313 46.6812H26.5918C26.866 46.6805 27.1287 46.5714 27.3228 46.3778C27.517 46.1842 27.6267 45.9217 27.6281 45.6476V40.4796C27.6281 39.8505 27.3782 39.2472 26.9334 38.8023C26.4885 38.3575 25.8852 38.1075 25.2561 38.1075C24.6269 38.1075 24.0236 38.3575 23.5788 38.8023C23.1339 39.2472 22.884 39.8505 22.884 40.4796V45.6476C22.8847 45.7843 22.9124 45.9195 22.9654 46.0454C23.0185 46.1714 23.0959 46.2857 23.1931 46.3817C23.2904 46.4777 23.4057 46.5536 23.5324 46.605C23.659 46.6564 23.7946 46.6823 23.9313 46.6812Z" fill="white"/>
<path d="M34.4609 35.8693V41.0291C34.4609 41.3042 34.57 41.5681 34.7643 41.7629C34.9586 41.9577 35.2222 42.0675 35.4973 42.0682H38.1605C38.4356 42.0675 38.6992 41.9577 38.8935 41.7629C39.0878 41.5681 39.1969 41.3042 39.1969 41.0291V38.6967C38.907 39.1014 38.8469 39.2873 38.4012 39.3611C38.2837 39.3692 38.166 39.3485 38.0584 39.3009C37.9507 39.2532 37.8562 39.1801 37.7832 39.0877C37.72 39.0134 37.6675 38.9305 37.6273 38.8416C37.0586 37.3514 37.0805 35.1967 37.6465 34.4092C37.8036 34.2239 37.9786 34.0545 38.1688 33.9033C37.7737 33.6353 37.3063 33.4941 36.8289 33.4986C36.2006 33.4994 35.5983 33.7495 35.1543 34.194C34.7103 34.6385 34.4609 35.2411 34.4609 35.8693Z" fill="white"/>
<path d="M51.8277 42.1558V45.6476C51.827 46.213 51.6021 46.7551 51.2022 47.1549C50.8024 47.5548 50.2604 47.7797 49.6949 47.7804H47.0344C46.4689 47.7797 45.9269 47.5548 45.527 47.1549C45.1272 46.7551 44.9023 46.213 44.9016 45.6476V42.1531C44.3923 42.7578 44.1124 43.5226 44.1113 44.3132L44.125 52.2429C44.125 52.533 44.2402 52.8112 44.4454 53.0163C44.6505 53.2214 44.9287 53.3367 45.2188 53.3367H51.5379C51.828 53.3367 52.1062 53.2214 52.3113 53.0163C52.5164 52.8112 52.6316 52.533 52.6316 52.2429L52.6152 44.3132C52.6178 43.5233 52.3386 42.7583 51.8277 42.1558Z" fill="white"/>
<path d="M40.2363 35.6179C40.2624 35.4634 40.2447 35.3047 40.1853 35.1597C40.1259 35.0147 40.027 34.8893 39.9 34.7976C39.7453 34.6917 39.5625 34.6345 39.375 34.6335C39.3052 34.6379 39.2358 34.6471 39.1672 34.6609C39.0381 34.6827 38.9148 34.7306 38.8048 34.8015C38.6948 34.8725 38.6004 34.9651 38.5273 35.0738C38.3463 35.3863 38.2688 35.7481 38.3059 36.1073C38.3059 36.4218 38.3523 37.3925 38.4016 37.5675C38.4069 37.5929 38.4193 37.6162 38.4374 37.6348C38.4554 37.6535 38.4784 37.6665 38.5037 37.6725C38.5289 37.6786 38.5553 37.6773 38.5798 37.6688C38.6044 37.6604 38.626 37.6452 38.6422 37.6249C38.6613 37.6003 39.077 37.1273 39.107 37.078C39.4461 36.646 40.1898 36.255 40.2363 35.6179Z" fill="white"/>
<path d="M47.034 46.6812H49.6945C49.9701 46.6812 50.2344 46.5717 50.4293 46.3768C50.6241 46.182 50.7336 45.9177 50.7336 45.6421V40.4796C50.7127 39.8652 50.4539 39.2828 50.0119 38.8555C49.5698 38.4283 48.9791 38.1894 48.3643 38.1894C47.7494 38.1894 47.1587 38.4283 46.7166 38.8555C46.2746 39.2828 46.0158 39.8652 45.9949 40.4796V45.6476C45.9964 45.9222 46.1065 46.1851 46.3012 46.3788C46.4959 46.5725 46.7594 46.6812 47.034 46.6812Z" fill="white"/>
<path d="M52.8667 25.3011L47.8273 30.3351C47.6062 30.5542 47.3274 30.706 47.0233 30.7726C46.8152 30.8282 46.5969 30.8338 46.3862 30.789C46.1766 30.752 45.9761 30.675 45.7956 30.562L43.3101 33.0503C43.1553 33.2014 42.9683 33.3154 42.7632 33.3839C42.4753 33.47 42.1668 33.4555 41.8882 33.3429L40.9448 34.289L40.562 34.6718C40.4594 34.7744 40.3202 34.8321 40.1751 34.8321C40.03 34.8321 39.8908 34.7744 39.7882 34.6718C39.6856 34.5692 39.6279 34.43 39.6279 34.2849C39.6279 34.1398 39.6856 34.0006 39.7882 33.898L40.0616 33.6409L41.1308 32.5718C41.0715 32.4202 41.0409 32.2588 41.0405 32.096C41.0418 31.822 41.1267 31.5549 41.2839 31.3304C41.3987 31.1636 43.8952 28.6863 43.8952 28.6863C43.7887 28.5467 43.7022 28.393 43.6382 28.2296C43.5732 28.0385 43.54 27.8381 43.5398 27.6363C43.552 27.3545 43.6318 27.0797 43.7722 26.8351C43.8428 26.7203 43.9214 26.6107 44.0073 26.507L49.0441 21.4812C49.1964 21.3286 49.3774 21.2076 49.5765 21.1251C49.7757 21.0425 49.9892 21 50.2048 21C50.4204 21 50.6339 21.0425 50.8331 21.1251C51.0322 21.2076 51.2132 21.3286 51.3655 21.4812L52.8667 22.9823C53.1739 23.29 53.3465 23.707 53.3465 24.1417C53.3465 24.5765 53.1739 24.9935 52.8667 25.3011Z" fill="white"/>
</svg>
